<svg width="26" height="40" viewBox="0 0 26 40" fill="none" xmlns="http://www.w3.org/2000/svg">
<path d="M12.7182 30.887C12.3588 30.887 12.0075 30.9935 11.7088 31.1932C11.41 31.3928 11.1771 31.6766 11.0396 32.0086C10.9021 32.3406 10.8661 32.7059 10.9362 33.0583C11.0063 33.4108 11.1793 33.7345 11.4334 33.9886C11.6875 34.2427 12.0113 34.4157 12.3637 34.4858C12.7162 34.5559 13.0815 34.52 13.4135 34.3824C13.7455 34.2449 14.0292 34.0121 14.2288 33.7133C14.4285 33.4145 14.535 33.0632 14.535 32.7039C14.535 32.222 14.3436 31.7599 14.0029 31.4191C13.6622 31.0784 13.2 30.887 12.7182 30.887ZM23.6195 0H1.81688C1.33501 0 0.872884 0.191421 0.532152 0.532152C0.191421 0.872883 0 1.33501 0 1.81688V18.1688C0 19.6144 0.574263 21.0008 1.59646 22.023C2.61865 23.0452 4.00504 23.6195 5.45064 23.6195H7.26752V27.9255C6.34243 28.9744 5.73966 30.268 5.53155 31.6511C5.32344 33.0341 5.51883 34.4479 6.09427 35.7226C6.66972 36.9974 7.60077 38.079 8.7757 38.8377C9.95064 39.5964 11.3196 40 12.7182 40C14.1168 40 15.4857 39.5964 16.6606 38.8377C17.8356 38.079 18.7666 36.9974 19.3421 35.7226C19.9175 34.4479 20.1129 33.0341 19.9048 31.6511C19.6967 30.268 19.0939 28.9744 18.1688 27.9255V23.6195H19.9857C21.4313 23.6195 22.8177 23.0452 23.8399 22.023C24.8621 21.0008 25.4363 19.6144 25.4363 18.1688V1.81688C25.4363 1.33501 25.2449 0.872883 24.9042 0.532152C24.5635 0.191421 24.1013 0 23.6195 0ZM12.7182 36.3376C11.9871 36.3321 11.2746 36.1061 10.674 35.6893C10.0733 35.2725 9.61239 34.6842 9.35138 34.0012C9.09037 33.3183 9.04144 32.5725 9.21099 31.8613C9.38053 31.1501 9.76067 30.5066 10.3017 30.0149C10.4899 29.845 10.6405 29.6376 10.7438 29.4061C10.847 29.1745 10.9007 28.9239 10.9013 28.6704V23.6195H14.535V28.6704C14.5356 28.9239 14.5893 29.1745 14.6926 29.4061C14.7958 29.6376 14.9464 29.845 15.1346 30.0149C15.6757 30.5066 16.0558 31.1501 16.2253 31.8613C16.3949 32.5725 16.346 33.3183 16.085 34.0012C15.8239 34.6842 15.363 35.2725 14.7623 35.6893C14.1617 36.1061 13.4493 36.3321 12.7182 36.3376ZM21.8026 18.1688C21.8026 18.6507 21.6112 19.1128 21.2704 19.4535C20.9297 19.7943 20.4676 19.9857 19.9857 19.9857H5.45064C4.96878 19.9857 4.50665 19.7943 4.16591 19.4535C3.82518 19.1128 3.63376 18.6507 3.63376 18.1688V16.3519H21.8026V18.1688ZM21.8026 12.7182H3.63376V3.63376H21.8026V12.7182Z" fill="#FF601A"/>
</svg>
