<svg width="18" height="18" viewBox="0 0 18 18" fill="none" xmlns="http://www.w3.org/2000/svg">
<path d="M8.33349 14.8186H4.0835C3.89563 14.8186 3.71547 14.744 3.58263 14.6111C3.44979 14.4783 3.37516 14.2981 3.37516 14.1103V4.1936C3.37516 4.00574 3.44979 3.82558 3.58263 3.69274C3.71547 3.5599 3.89563 3.48527 4.0835 3.48527H7.62516V5.61027C7.62516 6.17386 7.84904 6.71436 8.24756 7.11287C8.64607 7.51139 9.18657 7.73527 9.75016 7.73527H11.8752V11.2769C11.8752 11.4648 11.9498 11.645 12.0826 11.7778C12.2155 11.9106 12.3956 11.9853 12.5835 11.9853C12.7714 11.9853 12.9515 11.9106 13.0844 11.7778C13.2172 11.645 13.2918 11.4648 13.2918 11.2769V7.02694C13.2918 7.02694 13.2918 7.02694 13.2918 6.98444C13.2844 6.91937 13.2702 6.85526 13.2493 6.79319V6.72944C13.2153 6.65661 13.1698 6.58966 13.1147 6.53111L8.86474 2.2811C8.80619 2.22601 8.73924 2.18058 8.66641 2.14652C8.64298 2.14242 8.61901 2.14242 8.59558 2.14652C8.5267 2.10969 8.45268 2.08342 8.37599 2.0686H4.0835C3.51991 2.0686 2.97941 2.29249 2.58089 2.691C2.18238 3.08952 1.9585 3.63002 1.9585 4.1936V14.1103C1.9585 14.6739 2.18238 15.2144 2.58089 15.6129C2.97941 16.0114 3.51991 16.2353 4.0835 16.2353H8.33349C8.52135 16.2353 8.70152 16.1606 8.83436 16.0278C8.9672 15.895 9.04183 15.7148 9.04183 15.5269C9.04183 15.3391 8.9672 15.1589 8.83436 15.0261C8.70152 14.8932 8.52135 14.8186 8.33349 14.8186ZM9.04183 4.48402L10.8764 6.31861H9.75016C9.5623 6.31861 9.38213 6.24398 9.24929 6.11114C9.11645 5.9783 9.04183 5.79813 9.04183 5.61027V4.48402ZM5.50016 10.5686H9.75016C9.93802 10.5686 10.1182 10.494 10.251 10.3611C10.3839 10.2283 10.4585 10.0481 10.4585 9.86027C10.4585 9.67241 10.3839 9.49224 10.251 9.35941C10.1182 9.22657 9.93802 9.15194 9.75016 9.15194H5.50016C5.3123 9.15194 5.13213 9.22657 4.99929 9.35941C4.86646 9.49224 4.79183 9.67241 4.79183 9.86027C4.79183 10.0481 4.86646 10.2283 4.99929 10.3611C5.13213 10.494 5.3123 10.5686 5.50016 10.5686ZM8.33349 11.9853H5.50016C5.3123 11.9853 5.13213 12.0599 4.99929 12.1927C4.86646 12.3256 4.79183 12.5057 4.79183 12.6936C4.79183 12.8815 4.86646 13.0616 4.99929 13.1945C5.13213 13.3273 5.3123 13.4019 5.50016 13.4019H8.33349C8.52135 13.4019 8.70152 13.3273 8.83436 13.1945C8.9672 13.0616 9.04183 12.8815 9.04183 12.6936C9.04183 12.5057 8.9672 12.3256 8.83436 12.1927C8.70152 12.0599 8.52135 11.9853 8.33349 11.9853ZM5.50016 7.73527H6.20849C6.39636 7.73527 6.57652 7.66064 6.70936 7.52781C6.8422 7.39497 6.91683 7.2148 6.91683 7.02694C6.91683 6.83908 6.8422 6.65891 6.70936 6.52607C6.57652 6.39323 6.39636 6.3186 6.20849 6.31861H5.50016C5.3123 6.3186 5.13213 6.39323 4.99929 6.52607C4.86646 6.65891 4.79183 6.83908 4.79183 7.02694C4.79183 7.2148 4.86646 7.39497 4.99929 7.52781C5.13213 7.66064 5.3123 7.73527 5.50016 7.73527ZM15.2114 12.1907C15.1456 12.1243 15.0672 12.0716 14.9809 12.0356C14.8946 11.9997 14.802 11.9812 14.7085 11.9812C14.615 11.9812 14.5224 11.9997 14.4361 12.0356C14.3498 12.0716 14.2714 12.1243 14.2056 12.1907L11.8752 14.5282L10.9614 13.6074C10.8954 13.5413 10.817 13.4889 10.7307 13.4532C10.6444 13.4174 10.5519 13.399 10.4585 13.399C10.3651 13.399 10.2726 13.4174 10.1863 13.4532C10.1 13.4889 10.0216 13.5413 9.95558 13.6074C9.88953 13.6734 9.83714 13.7518 9.8014 13.8381C9.76566 13.9244 9.74726 14.0169 9.74726 14.1103C9.74726 14.2037 9.76566 14.2962 9.8014 14.3825C9.83714 14.4687 9.88953 14.5471 9.95558 14.6132L11.3722 16.0299C11.4381 16.0962 11.5164 16.1489 11.6027 16.1849C11.6891 16.2209 11.7816 16.2394 11.8752 16.2394C11.9687 16.2394 12.0612 16.2209 12.1476 16.1849C12.2339 16.1489 12.3122 16.0962 12.3781 16.0299L15.2114 13.1965C15.2778 13.1307 15.3305 13.0523 15.3665 12.966C15.4024 12.8797 15.4209 12.7871 15.4209 12.6936C15.4209 12.6001 15.4024 12.5075 15.3665 12.4212C15.3305 12.3349 15.2778 12.2565 15.2114 12.1907Z" fill="white"/>
</svg>
