<svg width="17" height="17" viewBox="0 0 17 17" fill="none" xmlns="http://www.w3.org/2000/svg">
<path d="M16.7613 15.5614L13.6097 12.4352C14.833 10.9099 15.4255 8.97379 15.2652 7.02505C15.1049 5.07631 14.204 3.26304 12.7479 1.9581C11.2917 0.653159 9.39092 -0.0442733 7.43633 0.00921127C5.48174 0.0626958 3.62193 0.863031 2.2393 2.24565C0.856684 3.62827 0.0563482 5.48809 0.00286362 7.44268C-0.0506209 9.39727 0.646811 11.2981 1.95175 12.7542C3.25669 14.2104 5.06996 15.1112 7.0187 15.2715C8.96744 15.4318 10.9035 14.8394 12.4289 13.616L15.555 16.7422C15.634 16.8218 15.7279 16.885 15.8315 16.9281C15.935 16.9712 16.046 16.9934 16.1582 16.9934C16.2703 16.9934 16.3813 16.9712 16.4849 16.9281C16.5884 16.885 16.6823 16.8218 16.7613 16.7422C16.9144 16.5838 17 16.3721 17 16.1518C17 15.9315 16.9144 15.7198 16.7613 15.5614ZM7.66321 13.616C6.48711 13.616 5.33742 13.2673 4.35953 12.6139C3.38164 11.9605 2.61947 11.0317 2.16939 9.94517C1.71932 8.8586 1.60156 7.66296 1.831 6.50946C2.06045 5.35596 2.6268 4.2964 3.45842 3.46477C4.29005 2.63314 5.34961 2.0668 6.50311 1.83735C7.65661 1.60791 8.85225 1.72567 9.93882 2.17574C11.0254 2.62581 11.9541 3.38799 12.6075 4.36588C13.2609 5.34377 13.6097 6.49346 13.6097 7.66956C13.6097 9.24666 12.9832 10.7592 11.868 11.8743C10.7528 12.9895 9.24031 13.616 7.66321 13.616Z" fill="white"/>
</svg>
