<svg width="17" height="17" viewBox="0 0 17 17" fill="none" xmlns="http://www.w3.org/2000/svg">
<path d="M8.51196 0.0114746C7.3973 0.0114746 6.29355 0.231024 5.26373 0.657588C4.23391 1.08415 3.2982 1.70938 2.51001 2.49756C0.918197 4.08938 0.0239247 6.24834 0.0239247 8.49951C0.0165043 10.4595 0.695152 12.3603 1.94222 13.8724L0.244614 15.57C0.126836 15.6894 0.0470513 15.841 0.015328 16.0056C-0.0163953 16.1703 0.00136394 16.3407 0.0663648 16.4952C0.136865 16.648 0.251153 16.7763 0.394722 16.864C0.538291 16.9516 0.704666 16.9946 0.872728 16.9875H8.51196C10.7631 16.9875 12.9221 16.0933 14.5139 14.5015C16.1057 12.9096 17 10.7507 17 8.49951C17 6.24834 16.1057 4.08938 14.5139 2.49756C12.9221 0.905747 10.7631 0.0114746 8.51196 0.0114746ZM8.51196 15.2899H2.91835L3.70773 14.5006C3.86582 14.3415 3.95456 14.1264 3.95456 13.9021C3.95456 13.6779 3.86582 13.4628 3.70773 13.3037C2.5963 12.1935 1.90417 10.7323 1.74928 9.16904C1.59439 7.60576 1.98631 6.03714 2.85827 4.73042C3.73024 3.4237 5.02829 2.45973 6.53129 2.00275C8.03429 1.54576 9.64924 1.62404 11.101 2.22423C12.5528 2.82443 13.7515 3.90941 14.493 5.29434C15.2345 6.67926 15.4729 8.27843 15.1675 9.81941C14.8622 11.3604 14.032 12.7478 12.8184 13.7453C11.6048 14.7428 10.0829 15.2887 8.51196 15.2899Z" fill="white"/>
</svg>
