<svg width="17" height="17" viewBox="0 0 17 17" fill="none" xmlns="http://www.w3.org/2000/svg">
<path d="M8.50033 2.125C7.57013 2.125 6.64904 2.30822 5.78965 2.66419C4.93026 3.02016 4.1494 3.54191 3.49165 4.19966C2.16327 5.52804 1.41699 7.32972 1.41699 9.20833V14.1667C1.41699 14.3545 1.49162 14.5347 1.62446 14.6675C1.7573 14.8004 1.93746 14.875 2.12533 14.875H4.25033C4.81391 14.875 5.35441 14.6511 5.75293 14.2526C6.15144 13.8541 6.37533 13.3136 6.37533 12.75V11.3333C6.37533 10.7697 6.15144 10.2292 5.75293 9.83073C5.35441 9.43222 4.81391 9.20833 4.25033 9.20833H2.83366C2.83366 7.70544 3.43068 6.2641 4.49339 5.20139C5.55609 4.13869 6.99743 3.54167 8.50033 3.54167C10.0032 3.54167 11.4446 4.13869 12.5073 5.20139C13.57 6.2641 14.167 7.70544 14.167 9.20833H12.7503C12.1867 9.20833 11.6462 9.43222 11.2477 9.83073C10.8492 10.2292 10.6253 10.7697 10.6253 11.3333V12.75C10.6253 13.3136 10.8492 13.8541 11.2477 14.2526C11.6462 14.6511 12.1867 14.875 12.7503 14.875H14.8753C15.0632 14.875 15.2434 14.8004 15.3762 14.6675C15.509 14.5347 15.5837 14.3545 15.5837 14.1667V9.20833C15.5837 7.32972 14.8374 5.52804 13.509 4.19966C12.1806 2.87128 10.3789 2.125 8.50033 2.125ZM4.25033 10.625C4.43819 10.625 4.61835 10.6996 4.75119 10.8325C4.88403 10.9653 4.95866 11.1455 4.95866 11.3333V12.75C4.95866 12.9379 4.88403 13.118 4.75119 13.2509C4.61835 13.3837 4.43819 13.4583 4.25033 13.4583H2.83366V10.625H4.25033ZM14.167 13.4583H12.7503C12.5625 13.4583 12.3823 13.3837 12.2495 13.2509C12.1166 13.118 12.042 12.9379 12.042 12.75V11.3333C12.042 11.1455 12.1166 10.9653 12.2495 10.8325C12.3823 10.6996 12.5625 10.625 12.7503 10.625H14.167V13.4583Z" fill="white"/>
</svg>
