<svg width="48" height="48" viewBox="0 0 48 48" fill="none" xmlns="http://www.w3.org/2000/svg">
<path d="M36 4H12C10.4087 4 8.88258 4.63214 7.75736 5.75736C6.63214 6.88258 6 8.4087 6 10V32C6 33.5913 6.63214 35.1174 7.75736 36.2426C8.88258 37.3679 10.4087 38 12 38H17.18L22.58 43.42C22.7669 43.6054 22.9885 43.752 23.2322 43.8515C23.4759 43.9511 23.7368 44.0015 24 44C24.4767 44 24.9377 43.8298 25.3 43.52L31.74 38H36C37.5913 38 39.1174 37.3679 40.2426 36.2426C41.3679 35.1174 42 33.5913 42 32V10C42 8.4087 41.3679 6.88258 40.2426 5.75736C39.1174 4.63214 37.5913 4 36 4ZM38 32C38 32.5304 37.7893 33.0391 37.4142 33.4142C37.0391 33.7893 36.5304 34 36 34H31C30.5233 34 30.0623 34.1702 29.7 34.48L24.1 39.28L19.42 34.58C19.2331 34.3946 19.0115 34.248 18.7678 34.1485C18.5241 34.0489 18.2632 33.9985 18 34H12C11.4696 34 10.9609 33.7893 10.5858 33.4142C10.2107 33.0391 10 32.5304 10 32V10C10 9.46957 10.2107 8.96086 10.5858 8.58579C10.9609 8.21071 11.4696 8 12 8H36C36.5304 8 37.0391 8.21071 37.4142 8.58579C37.7893 8.96086 38 9.46957 38 10V32Z" fill="#FF601A"/>
</svg>
