<svg width="17" height="17" viewBox="0 0 17 17" fill="none" xmlns="http://www.w3.org/2000/svg">
<path d="M14.8754 14.1666H12.7504C12.5626 14.1666 12.3824 14.092 12.2496 13.9591C12.1167 13.8263 12.0421 13.6461 12.0421 13.4583V11.3333C12.8876 11.3255 13.7024 11.0155 14.3392 10.4593C14.976 9.90307 15.3929 9.1374 15.5143 8.30066C15.6358 7.46392 15.454 6.61132 15.0016 5.89698C14.5493 5.18265 13.8563 4.65371 13.0479 4.40578C12.6151 3.41128 11.8682 2.58613 10.9216 2.05675C9.97495 1.52738 8.88086 1.32299 7.80696 1.47492C6.73306 1.62684 5.7386 2.12668 4.97595 2.89786C4.21331 3.66904 3.72457 4.66901 3.58461 5.74453C2.90927 5.90626 2.31685 6.31037 1.91984 6.88012C1.52283 7.44987 1.34888 8.14559 1.43104 8.83514C1.51319 9.52469 1.84572 10.1601 2.36547 10.6206C2.88523 11.0811 3.55601 11.3347 4.25044 11.3333H4.95877V13.4583C4.95877 13.6461 4.88415 13.8263 4.75131 13.9591C4.61847 14.092 4.4383 14.1666 4.25044 14.1666H2.12544C1.93758 14.1666 1.75741 14.2412 1.62457 14.3741C1.49174 14.5069 1.41711 14.6871 1.41711 14.8749C1.41711 15.0628 1.49174 15.243 1.62457 15.3758C1.75741 15.5087 1.93758 15.5833 2.12544 15.5833H4.25044C4.81403 15.5833 5.35453 15.3594 5.75304 14.9609C6.15156 14.5624 6.37544 14.0219 6.37544 13.4583V11.3333H7.79211V14.8749C7.79211 15.0628 7.86674 15.243 7.99957 15.3758C8.13241 15.5087 8.31258 15.5833 8.50044 15.5833C8.6883 15.5833 8.86847 15.5087 9.00131 15.3758C9.13415 15.243 9.20877 15.0628 9.20877 14.8749V11.3333H10.6254V13.4583C10.6254 14.0219 10.8493 14.5624 11.2478 14.9609C11.6464 15.3594 12.1869 15.5833 12.7504 15.5833H14.8754C15.0633 15.5833 15.2435 15.5087 15.3763 15.3758C15.5091 15.243 15.5838 15.0628 15.5838 14.8749C15.5838 14.6871 15.5091 14.5069 15.3763 14.3741C15.2435 14.2412 15.0633 14.1666 14.8754 14.1666ZM4.25044 9.91661C3.87472 9.91661 3.51438 9.76736 3.24871 9.50168C2.98303 9.236 2.83377 8.87567 2.83377 8.49995C2.83377 8.12422 2.98303 7.76389 3.24871 7.49821C3.51438 7.23254 3.87472 7.08328 4.25044 7.08328C4.4383 7.08328 4.61847 7.00865 4.75131 6.87581C4.88415 6.74297 4.95877 6.56281 4.95877 6.37495C4.96058 5.53718 5.25931 4.72719 5.80188 4.08886C6.34445 3.45053 7.09574 3.0252 7.92226 2.88844C8.74879 2.75168 9.59703 2.91233 10.3163 3.34187C11.0356 3.7714 11.5793 4.442 11.8509 5.23453C11.8913 5.35625 11.9641 5.46469 12.0614 5.54827C12.1587 5.63186 12.2769 5.68745 12.4034 5.70911C12.8951 5.79393 13.3412 6.04906 13.6637 6.42982C13.9862 6.81057 14.1644 7.29266 14.1671 7.79161C14.1671 8.3552 13.9432 8.8957 13.5447 9.29422C13.1462 9.69273 12.6057 9.91661 12.0421 9.91661H4.25044Z" fill="white"/>
</svg>
