<svg width="39" height="40" viewBox="0 0 39 40" fill="none" xmlns="http://www.w3.org/2000/svg">
<path d="M37.4815 16.5683L34.0198 13.1265C34.8584 11.7663 35.3082 10.2022 35.3204 8.60429C35.3165 6.90027 34.8078 5.23561 33.8586 3.82042C32.9095 2.40523 31.5623 1.30294 29.9873 0.652663C28.4122 0.00239063 26.6798 -0.166713 25.0087 0.166696C23.3376 0.500105 21.8027 1.32108 20.5978 2.52601C19.3929 3.73093 18.5719 5.2658 18.2385 6.93689C17.9051 8.60797 18.0742 10.3404 18.7245 11.9154C19.3747 13.4905 20.477 14.8376 21.8922 15.7868C23.3074 16.736 24.9721 17.2447 26.6761 17.2486C28.2705 17.2505 29.8348 16.8144 31.1984 15.988L34.6401 19.4497C34.8261 19.6373 35.0474 19.7861 35.2913 19.8877C35.5351 19.9893 35.7966 20.0416 36.0608 20.0416C36.3249 20.0416 36.5865 19.9893 36.8303 19.8877C37.0742 19.7861 37.2955 19.6373 37.4815 19.4497C37.6752 19.2631 37.8292 19.0393 37.9344 18.7917C38.0396 18.5442 38.0939 18.278 38.0939 18.009C38.0939 17.74 38.0396 17.4738 37.9344 17.2263C37.8292 16.9787 37.6752 16.7549 37.4815 16.5683ZM29.9577 11.986C29.3015 12.6342 28.4669 13.0722 27.5607 13.2442C26.6544 13.4161 25.7174 13.3141 24.8693 12.9513C24.0213 12.5884 23.3005 11.9811 22.799 11.2069C22.2976 10.4327 22.0381 9.5266 22.0538 8.60429C22.0534 7.99762 22.1735 7.39691 22.407 6.83702C22.6406 6.27712 22.983 5.76917 23.4145 5.34265C24.2842 4.47875 25.4602 3.99389 26.6861 3.99389C27.9119 3.99389 29.088 4.47875 29.9577 5.34265C30.3879 5.77199 30.7292 6.28195 30.962 6.84334C31.1949 7.40473 31.3148 8.00653 31.3148 8.61429C31.3148 9.22206 31.1949 9.82386 30.962 10.3852C30.7292 10.9466 30.3879 11.4566 29.9577 11.8859V11.986ZM34.0598 23.992C33.8049 23.9258 33.5394 23.9106 33.2786 23.9473C33.0179 23.9839 32.7669 24.0717 32.5401 24.2055C32.3133 24.3394 32.1151 24.5167 31.957 24.7273C31.7989 24.9379 31.6839 25.1776 31.6186 25.4327C30.8534 28.4513 29.1041 31.1288 26.6472 33.0422C24.1903 34.9555 21.1658 35.9956 18.0518 35.998H6.86618L8.14682 34.7374C8.51951 34.3625 8.72869 33.8553 8.72869 33.3267C8.72869 32.798 8.51951 32.2909 8.14682 31.916C6.85225 30.5951 5.83209 29.0309 5.1452 27.3137C4.45832 25.5965 4.11832 23.7602 4.14481 21.9109C4.15533 19.1502 4.98148 16.4541 6.51946 14.1613C8.05745 11.8686 10.2387 10.0815 12.7891 9.0245C13.2827 8.82814 13.678 8.44376 13.8882 7.95592C14.0983 7.46808 14.1061 6.91674 13.9097 6.42319C13.7133 5.92964 13.329 5.53431 12.8411 5.32417C12.3533 5.11402 11.802 5.10628 11.3084 5.30263C8.6948 6.35029 6.36327 7.99621 4.50103 10.1082C2.6388 12.2202 1.29775 14.7395 0.585563 17.4637C-0.126623 20.1879 -0.190097 23.0412 0.400237 25.7943C0.990571 28.5475 2.21826 31.1239 3.98473 33.3167L0.623051 36.5783C0.345397 36.8597 0.15731 37.217 0.0825247 37.6052C0.00773904 37.9933 0.0496053 38.395 0.202841 38.7594C0.352956 39.1248 0.60788 39.4376 0.935484 39.6584C1.26309 39.8792 1.64871 39.998 2.04376 40H18.0518C22.0463 40.0026 25.9283 38.677 29.087 36.2319C32.2457 33.7868 34.5019 30.3609 35.5005 26.4932C35.5758 26.2344 35.598 25.963 35.5658 25.6953C35.5336 25.4277 35.4476 25.1693 35.3131 24.9357C35.1785 24.702 34.9981 24.498 34.7828 24.3359C34.5674 24.1737 34.3215 24.0567 34.0598 23.992Z" fill="#FF601A"/>
</svg>
