<svg width="17" height="17" viewBox="0 0 17 17" fill="none" xmlns="http://www.w3.org/2000/svg">
<path d="M8.5001 10.6249C8.07981 10.6249 7.66897 10.7496 7.31951 10.9831C6.97006 11.2166 6.69769 11.5484 6.53685 11.9367C6.37602 12.325 6.33394 12.7523 6.41593 13.1645C6.49792 13.5767 6.70031 13.9553 6.9975 14.2525C7.29468 14.5497 7.67332 14.7521 8.08553 14.8341C8.49774 14.9161 8.92501 14.874 9.3133 14.7132C9.70159 14.5523 10.0335 14.28 10.267 13.9305C10.5005 13.5811 10.6251 13.1702 10.6251 12.7499C10.6251 12.1863 10.4012 11.6458 10.0027 11.2473C9.60419 10.8488 9.06368 10.6249 8.5001 10.6249ZM8.5001 13.4583C8.36 13.4583 8.22305 13.4167 8.10657 13.3389C7.99008 13.2611 7.8993 13.1504 7.84568 13.021C7.79207 12.8916 7.77804 12.7491 7.80538 12.6117C7.83271 12.4743 7.90017 12.3481 7.99923 12.2491C8.09829 12.15 8.22451 12.0825 8.36191 12.0552C8.49931 12.0279 8.64174 12.0419 8.77117 12.0955C8.9006 12.1491 9.01122 12.2399 9.08906 12.3564C9.16689 12.4729 9.20843 12.6098 9.20843 12.7499C9.20843 12.9378 9.1338 13.118 9.00097 13.2508C8.86813 13.3836 8.68796 13.4583 8.5001 13.4583ZM8.5001 7.7916C7.18595 7.79613 5.92641 8.31776 4.99385 9.24368C4.86192 9.3764 4.78787 9.55593 4.78787 9.74306C4.78787 9.93019 4.86192 10.1097 4.99385 10.2424C5.12656 10.3744 5.30609 10.4484 5.49322 10.4484C5.68036 10.4484 5.85988 10.3744 5.9926 10.2424C6.32159 9.91261 6.71242 9.65093 7.14269 9.47239C7.57297 9.29384 8.03425 9.20193 8.5001 9.20193C8.96595 9.20193 9.42723 9.29384 9.8575 9.47239C10.2878 9.65093 10.6786 9.91261 11.0076 10.2424C11.1384 10.3759 11.3166 10.4523 11.5034 10.4549C11.6471 10.4632 11.79 10.4275 11.9129 10.3526C12.0358 10.2776 12.133 10.167 12.1914 10.0355C12.2499 9.9039 12.2669 9.75766 12.2401 9.61621C12.2134 9.47476 12.1442 9.34482 12.0418 9.24368C11.5757 8.78093 11.023 8.41452 10.4154 8.16537C9.80768 7.91622 9.15687 7.78921 8.5001 7.7916ZM8.5001 4.95827C6.43459 4.96375 4.45451 5.78327 2.98927 7.2391C2.92322 7.30514 2.87083 7.38355 2.83509 7.46984C2.79935 7.55613 2.78095 7.64862 2.78095 7.74202C2.78095 7.93065 2.85588 8.11155 2.98927 8.24493C3.12265 8.37831 3.30355 8.45325 3.49218 8.45325C3.68081 8.45325 3.86172 8.37831 3.9951 8.24493C5.19041 7.0511 6.81072 6.38054 8.5001 6.38054C10.1895 6.38054 11.8098 7.0511 13.0051 8.24493C13.0713 8.31058 13.1498 8.36252 13.2361 8.39777C13.3224 8.43302 13.4148 8.45089 13.508 8.45035C13.6012 8.45089 13.6936 8.43302 13.7799 8.39777C13.8663 8.36252 13.9447 8.31058 14.0109 8.24493C14.0773 8.17908 14.13 8.10074 14.166 8.01442C14.2019 7.92811 14.2205 7.83552 14.2205 7.74202C14.2205 7.64851 14.2019 7.55592 14.166 7.46961C14.13 7.38329 14.0773 7.30495 14.0109 7.2391C12.5457 5.78327 10.5656 4.96375 8.5001 4.95827ZM16.0155 5.23452C15.0288 4.24717 13.8572 3.46393 12.5677 2.92955C11.2782 2.39517 9.89597 2.12012 8.5001 2.12012C7.10423 2.12012 5.72204 2.39517 4.43251 2.92955C3.14299 3.46393 1.97139 4.24717 0.984682 5.23452C0.8513 5.3679 0.776367 5.5488 0.776367 5.73743C0.776367 5.92606 0.8513 6.10697 0.984682 6.24035C1.11806 6.37373 1.29897 6.44866 1.4876 6.44866C1.67623 6.44866 1.85713 6.37373 1.99052 6.24035C3.71728 4.51449 6.05873 3.54498 8.5001 3.54498C10.9415 3.54498 13.2829 4.51449 15.0097 6.24035C15.0755 6.30674 15.1539 6.35944 15.2402 6.3954C15.3265 6.43136 15.4191 6.44987 15.5126 6.44987C15.6061 6.44987 15.6987 6.43136 15.785 6.3954C15.8713 6.35944 15.9497 6.30674 16.0155 6.24035C16.0819 6.1745 16.1346 6.09616 16.1706 6.00984C16.2065 5.92352 16.225 5.83094 16.225 5.73743C16.225 5.64392 16.2065 5.55134 16.1706 5.46502C16.1346 5.37871 16.0819 5.30036 16.0155 5.23452Z" fill="white"/>
</svg>
