<svg width="17" height="17" viewBox="0 0 17 17" fill="none" xmlns="http://www.w3.org/2000/svg">
<path d="M12.0415 4.95833H12.7498V5.66667C12.7498 5.85453 12.8245 6.0347 12.9573 6.16753C13.0901 6.30037 13.2703 6.375 13.4582 6.375C13.646 6.375 13.8262 6.30037 13.959 6.16753C14.0919 6.0347 14.1665 5.85453 14.1665 5.66667V4.95833H14.8748C15.0627 4.95833 15.2429 4.88371 15.3757 4.75087C15.5085 4.61803 15.5832 4.43786 15.5832 4.25C15.5832 4.06214 15.5085 3.88197 15.3757 3.74913C15.2429 3.61629 15.0627 3.54167 14.8748 3.54167H14.1665V2.83333C14.1665 2.64547 14.0919 2.4653 13.959 2.33247C13.8262 2.19963 13.646 2.125 13.4582 2.125C13.2703 2.125 13.0901 2.19963 12.9573 2.33247C12.8245 2.4653 12.7498 2.64547 12.7498 2.83333V3.54167H12.0415C11.8536 3.54167 11.6735 3.61629 11.5406 3.74913C11.4078 3.88197 11.3332 4.06214 11.3332 4.25C11.3332 4.43786 11.4078 4.61803 11.5406 4.75087C11.6735 4.88371 11.8536 4.95833 12.0415 4.95833ZM14.8748 7.79167C14.687 7.79167 14.5068 7.86629 14.374 7.99913C14.2411 8.13197 14.1665 8.31214 14.1665 8.5V12.75C14.1665 12.9379 14.0919 13.118 13.959 13.2509C13.8262 13.3837 13.646 13.4583 13.4582 13.4583H3.5415C3.35364 13.4583 3.17348 13.3837 3.04064 13.2509C2.9078 13.118 2.83317 12.9379 2.83317 12.75V5.95708L6.99817 10.1292C7.39661 10.5271 7.93671 10.7506 8.49984 10.7506C9.06296 10.7506 9.60307 10.5271 10.0015 10.1292L11.7511 8.37958C11.8845 8.2462 11.9594 8.0653 11.9594 7.87667C11.9594 7.68804 11.8845 7.50713 11.7511 7.37375C11.6177 7.24037 11.4368 7.16544 11.2482 7.16544C11.0595 7.16544 10.8786 7.24037 10.7453 7.37375L8.99567 9.12333C8.86326 9.25312 8.68525 9.32582 8.49984 9.32582C8.31443 9.32582 8.13641 9.25312 8.004 9.12333L3.83192 4.95833H9.20817C9.39603 4.95833 9.5762 4.88371 9.70904 4.75087C9.84188 4.61803 9.9165 4.43786 9.9165 4.25C9.9165 4.06214 9.84188 3.88197 9.70904 3.74913C9.5762 3.61629 9.39603 3.54167 9.20817 3.54167H3.5415C2.97792 3.54167 2.43742 3.76555 2.0389 4.16406C1.64039 4.56258 1.4165 5.10308 1.4165 5.66667V12.75C1.4165 13.3136 1.64039 13.8541 2.0389 14.2526C2.43742 14.6511 2.97792 14.875 3.5415 14.875H13.4582C14.0218 14.875 14.5623 14.6511 14.9608 14.2526C15.3593 13.8541 15.5832 13.3136 15.5832 12.75V8.5C15.5832 8.31214 15.5085 8.13197 15.3757 7.99913C15.2429 7.86629 15.0627 7.79167 14.8748 7.79167Z" fill="white"/>
</svg>
