<svg width="17" height="17" viewBox="0 0 17 17" fill="none" xmlns="http://www.w3.org/2000/svg">
<path d="M14.5987 13.5928C15.0426 12.9978 15.3472 12.3106 15.4901 11.5821C15.6329 10.8536 15.6104 10.1024 15.4241 9.38373C15.2378 8.6651 14.8926 7.99748 14.4138 7.43012C13.935 6.86277 13.3349 6.41017 12.6578 6.10572C12.5104 5.25721 12.1714 4.45347 11.6668 3.75559C11.1621 3.0577 10.505 2.48403 9.74541 2.07816C8.98581 1.67228 8.14369 1.44489 7.28304 1.41325C6.42239 1.38161 5.56585 1.54656 4.7785 1.89557C3.99115 2.24458 3.29372 2.76846 2.73918 3.42741C2.18464 4.08635 1.7876 4.86303 1.57822 5.69842C1.36884 6.53382 1.35263 7.40595 1.53082 8.24854C1.70901 9.09114 2.07692 9.88204 2.60658 10.5611L1.622 11.5386C1.52371 11.6382 1.45713 11.7647 1.43066 11.9021C1.40419 12.0396 1.41901 12.1817 1.47325 12.3107C1.52639 12.4401 1.61663 12.5508 1.7326 12.629C1.84857 12.7071 1.98507 12.7492 2.12492 12.7499H6.15533C6.55671 13.5961 7.18953 14.3113 7.98053 14.8127C8.77153 15.3141 9.68837 15.5813 10.6249 15.5832H14.8749C15.0148 15.5825 15.1513 15.5404 15.2672 15.4623C15.3832 15.3841 15.4734 15.2734 15.5266 15.1441C15.5808 15.0151 15.5956 14.8729 15.5692 14.7355C15.5427 14.5981 15.4761 14.4716 15.3778 14.372L14.5987 13.5928ZM5.66658 10.6249C5.66756 10.8621 5.6865 11.0989 5.72325 11.3332H3.832L4.07992 11.0924C4.14631 11.0265 4.199 10.9482 4.23497 10.8619C4.27093 10.7756 4.28944 10.683 4.28944 10.5895C4.28944 10.496 4.27093 10.4034 4.23497 10.3171C4.199 10.2307 4.14631 10.1524 4.07992 10.0866C3.68294 9.69393 3.36822 9.2261 3.15416 8.71042C2.94011 8.19474 2.83101 7.64156 2.83325 7.08322C2.83325 5.95605 3.28102 4.87504 4.07805 4.07801C4.87508 3.28098 5.95608 2.83322 7.08325 2.83322C7.96278 2.82793 8.82185 3.09841 9.5397 3.60662C10.2576 4.11484 10.7981 4.83524 11.0853 5.66655C10.9295 5.66655 10.7808 5.66655 10.6249 5.66655C9.30989 5.66655 8.04871 6.18895 7.11885 7.11881C6.18898 8.04868 5.66658 9.30985 5.66658 10.6249ZM13.1324 14.1666L13.1678 14.202H10.6249C9.80562 14.2005 9.01216 13.915 8.37973 13.3942C7.74729 12.8733 7.315 12.1493 7.15649 11.3455C6.99798 10.5417 7.12306 9.70776 7.51043 8.98582C7.89779 8.26387 8.52348 7.69855 9.28089 7.38617C10.0383 7.07379 10.8806 7.03367 11.6643 7.27265C12.448 7.51162 13.1245 8.01491 13.5788 8.69677C14.033 9.37863 14.2368 10.1969 14.1554 11.0121C14.074 11.8274 13.7125 12.5892 13.1324 13.1678C12.999 13.2986 12.9226 13.4768 12.9199 13.6636C12.9203 13.7574 12.9393 13.8501 12.9758 13.9364C13.0122 14.0227 13.0655 14.1009 13.1324 14.1666Z" fill="white"/>
</svg>
