<svg width="40" height="40" viewBox="0 0 40 40" fill="none" xmlns="http://www.w3.org/2000/svg">
<path d="M34 0H14C12.4087 0 10.8826 0.632141 9.75736 1.75736C8.63214 2.88258 8 4.4087 8 6V8H6C4.4087 8 2.88258 8.63214 1.75736 9.75736C0.632141 10.8826 0 12.4087 0 14V34C0 35.5913 0.632141 37.1174 1.75736 38.2426C2.88258 39.3679 4.4087 40 6 40H26C27.5913 40 29.1174 39.3679 30.2426 38.2426C31.3679 37.1174 32 35.5913 32 34V32H34C35.5913 32 37.1174 31.3679 38.2426 30.2426C39.3679 29.1174 40 27.5913 40 26V6C40 4.4087 39.3679 2.88258 38.2426 1.75736C37.1174 0.632141 35.5913 0 34 0ZM28 34C28 34.5304 27.7893 35.0391 27.4142 35.4142C27.0391 35.7893 26.5304 36 26 36H6C5.46957 36 4.96086 35.7893 4.58579 35.4142C4.21071 35.0391 4 34.5304 4 34V20H28V34ZM28 16H4V14C4 13.4696 4.21071 12.9609 4.58579 12.5858C4.96086 12.2107 5.46957 12 6 12H26C26.5304 12 27.0391 12.2107 27.4142 12.5858C27.7893 12.9609 28 13.4696 28 14V16ZM36 26C36 26.5304 35.7893 27.0391 35.4142 27.4142C35.0391 27.7893 34.5304 28 34 28H32V14C31.9946 13.3177 31.8728 12.6413 31.64 12H36V26ZM36 8H12V6C12 5.46957 12.2107 4.96086 12.5858 4.58579C12.9609 4.21071 13.4696 4 14 4H34C34.5304 4 35.0391 4.21071 35.4142 4.58579C35.7893 4.96086 36 5.46957 36 6V8Z" fill="#FF601A"/>
</svg>
