<svg width="17" height="17" viewBox="0 0 17 17" fill="none" xmlns="http://www.w3.org/2000/svg">
<path d="M12.75 1.41675H4.25C3.68641 1.41675 3.14591 1.64063 2.7474 2.03915C2.34888 2.43766 2.125 2.97816 2.125 3.54175V11.3334C2.125 11.897 2.34888 12.4375 2.7474 12.836C3.14591 13.2345 3.68641 13.4584 4.25 13.4584H6.08458L7.99708 15.378C8.06327 15.4436 8.14176 15.4956 8.22807 15.5308C8.31437 15.5661 8.40678 15.584 8.5 15.5834C8.66883 15.5834 8.83211 15.5231 8.96042 15.4134L11.2413 13.4584H12.75C13.3136 13.4584 13.8541 13.2345 14.2526 12.836C14.6511 12.4375 14.875 11.897 14.875 11.3334V3.54175C14.875 2.97816 14.6511 2.43766 14.2526 2.03915C13.8541 1.64063 13.3136 1.41675 12.75 1.41675ZM13.4583 11.3334C13.4583 11.5213 13.3837 11.7014 13.2509 11.8343C13.118 11.9671 12.9379 12.0417 12.75 12.0417H10.9792C10.8103 12.0417 10.6471 12.102 10.5188 12.2117L8.53542 13.9117L6.87792 12.2472C6.81173 12.1815 6.73323 12.1296 6.64693 12.0943C6.56063 12.0591 6.46822 12.0412 6.375 12.0417H4.25C4.06214 12.0417 3.88197 11.9671 3.74913 11.8343C3.61629 11.7014 3.54167 11.5213 3.54167 11.3334V3.54175C3.54167 3.35389 3.61629 3.17372 3.74913 3.04088C3.88197 2.90804 4.06214 2.83341 4.25 2.83341H12.75C12.9379 2.83341 13.118 2.90804 13.2509 3.04088C13.3837 3.17372 13.4583 3.35389 13.4583 3.54175V11.3334Z" fill="white"/>
</svg>
