<svg width="34" height="40" viewBox="0 0 34 40" fill="none" xmlns="http://www.w3.org/2000/svg">
<path d="M33.9589 11.1228C33.9475 11.0697 33.9475 11.0149 33.9589 10.9619C33.9491 10.9155 33.9491 10.8675 33.9589 10.8211V10.6401L33.8383 10.3385C33.7892 10.2562 33.7282 10.1816 33.6573 10.1173L33.4763 9.95643H33.3757L25.4527 4.94924L17.9721 0.324138C17.7991 0.186852 17.601 0.0844171 17.389 0.0225004H17.2281C17.0484 -0.00750014 16.8649 -0.00750014 16.6851 0.0225004H16.4841C16.2505 0.0741653 16.0265 0.162392 15.8204 0.28392L0.798907 9.63468L0.617924 9.77544L0.436942 9.93632L0.23585 10.0771L0.135305 10.1977L0.0146492 10.4994V10.6804V10.801C-0.00488306 10.9344 -0.00488306 11.0698 0.0146492 11.2032V28.7585C0.0139653 29.1002 0.100387 29.4365 0.265755 29.7356C0.431123 30.0347 0.669981 30.2866 0.95978 30.4678L16.0416 39.7984L16.3433 39.9191H16.5042C16.8444 40.027 17.2096 40.027 17.5498 39.9191H17.7107L18.0123 39.7984L32.9736 30.6085C33.2634 30.4274 33.5022 30.1754 33.6676 29.8763C33.833 29.5773 33.9194 29.241 33.9187 28.8993V11.344C33.9187 11.344 33.9589 11.2032 33.9589 11.1228ZM16.8862 4.38619L20.4657 6.5982L9.22464 13.556L5.62511 11.344L16.8862 4.38619ZM14.8753 34.5499L3.81528 27.7933V14.9435L14.8753 21.7806V34.5499ZM16.8862 18.2414L13.0454 15.9288L24.2864 8.95097L28.1474 11.344L16.8862 18.2414ZM29.9572 27.7329L18.8972 34.6103V21.7806L29.9572 14.9435V27.7329Z" fill="#FF601A"/>
</svg>
