<svg width="17" height="21" viewBox="0 0 17 21" fill="none" xmlns="http://www.w3.org/2000/svg">
<path d="M1.21429 14.1428C0.892237 14.1428 0.583379 14.2707 0.355656 14.4984C0.127934 14.7262 0 15.035 0 15.3571V18.9999C0 19.322 0.127934 19.6308 0.355656 19.8586C0.583379 20.0863 0.892237 20.2142 1.21429 20.2142C1.53633 20.2142 1.84519 20.0863 2.07292 19.8586C2.30064 19.6308 2.42857 19.322 2.42857 18.9999V15.3571C2.42857 15.035 2.30064 14.7262 2.07292 14.4984C1.84519 14.2707 1.53633 14.1428 1.21429 14.1428ZM6.07143 10.4999C5.74938 10.4999 5.44052 10.6279 5.2128 10.8556C4.98508 11.0833 4.85714 11.3922 4.85714 11.7142V18.9999C4.85714 19.322 4.98508 19.6308 5.2128 19.8586C5.44052 20.0863 5.74938 20.2142 6.07143 20.2142C6.39348 20.2142 6.70234 20.0863 6.93006 19.8586C7.15778 19.6308 7.28571 19.322 7.28571 18.9999V11.7142C7.28571 11.3922 7.15778 11.0833 6.93006 10.8556C6.70234 10.6279 6.39348 10.4999 6.07143 10.4999ZM15.7857 0.785645C15.4637 0.785645 15.1548 0.913578 14.9271 1.1413C14.6994 1.36902 14.5714 1.67788 14.5714 1.99993V18.9999C14.5714 19.322 14.6994 19.6308 14.9271 19.8586C15.1548 20.0863 15.4637 20.2142 15.7857 20.2142C16.1078 20.2142 16.4166 20.0863 16.6443 19.8586C16.8721 19.6308 17 19.322 17 18.9999V1.99993C17 1.67788 16.8721 1.36902 16.6443 1.1413C16.4166 0.913578 16.1078 0.785645 15.7857 0.785645ZM10.9286 5.64279C10.6065 5.64279 10.2977 5.77072 10.0699 5.99844C9.84222 6.22617 9.71429 6.53502 9.71429 6.85707V18.9999C9.71429 19.322 9.84222 19.6308 10.0699 19.8586C10.2977 20.0863 10.6065 20.2142 10.9286 20.2142C11.2506 20.2142 11.5595 20.0863 11.7872 19.8586C12.0149 19.6308 12.1429 19.322 12.1429 18.9999V6.85707C12.1429 6.53502 12.0149 6.22617 11.7872 5.99844C11.5595 5.77072 11.2506 5.64279 10.9286 5.64279Z" fill="white"/>
</svg>
