<svg width="17" height="17" viewBox="0 0 17 17" fill="none" xmlns="http://www.w3.org/2000/svg">
<path d="M5.6311 5.52505H1.80606C1.69442 5.52511 1.58386 5.50317 1.4807 5.46048C1.37755 5.41778 1.28382 5.35517 1.20487 5.27623C1.12593 5.19729 1.06332 5.10356 1.02063 5.0004C0.977934 4.89724 0.955991 4.78668 0.956055 4.67504V0.850008C0.956055 0.624572 1.04561 0.408369 1.20502 0.248961C1.36442 0.0895541 1.58063 0 1.80606 0C2.0315 0 2.2477 0.0895541 2.40711 0.248961C2.56652 0.408369 2.65607 0.624572 2.65607 0.850008V3.82503H5.6311C5.85653 3.82503 6.07274 3.91459 6.23214 4.074C6.39155 4.2334 6.4811 4.44961 6.4811 4.67504C6.4811 4.90048 6.39155 5.11668 6.23214 5.27609C6.07274 5.43549 5.85653 5.52505 5.6311 5.52505Z" fill="white"/>
<path d="M16.1499 9.3501C16.0383 9.35016 15.9277 9.32822 15.8246 9.28552C15.7214 9.24283 15.6277 9.18022 15.5487 9.10128C15.4698 9.02233 15.4072 8.92861 15.3645 8.82545C15.3218 8.72229 15.2999 8.61173 15.2999 8.50009C15.3009 7.00344 14.8077 5.54834 13.897 4.36065C12.9863 3.17297 11.709 2.31913 10.2634 1.93168C8.81776 1.54423 7.28466 1.64485 5.90207 2.2179C4.51947 2.79095 3.36472 3.80439 2.61705 5.10091C2.5041 5.29597 2.3183 5.43816 2.10051 5.49623C1.88273 5.55429 1.65079 5.52346 1.45574 5.41051C1.26068 5.29757 1.11848 5.11177 1.06042 4.89398C1.00236 4.67619 1.03319 4.44426 1.14614 4.2492C2.08117 2.62896 3.52485 1.36263 5.25314 0.646726C6.98143 -0.0691759 8.89769 -0.194621 10.7046 0.289855C12.5114 0.774332 14.1079 1.84164 15.2462 3.32616C16.3844 4.81068 17.0009 6.6294 16.9999 8.50009C17 8.61173 16.9781 8.72229 16.9354 8.82545C16.8927 8.92861 16.8301 9.02233 16.7511 9.10128C16.6722 9.18022 16.5785 9.24283 16.4753 9.28552C16.3721 9.32822 16.2616 9.35016 16.1499 9.3501ZM15.1937 17.0002C15.082 17.0002 14.9715 16.9783 14.8683 16.9356C14.7652 16.8929 14.6714 16.8303 14.5925 16.7513C14.5135 16.6724 14.4509 16.5787 14.4082 16.4755C14.3655 16.3724 14.3436 16.2618 14.3437 16.1502V13.1751H11.3686C11.1432 13.1751 10.927 13.0856 10.7676 12.9262C10.6082 12.7668 10.5186 12.5506 10.5186 12.3251C10.5186 12.0997 10.6082 11.8835 10.7676 11.7241C10.927 11.5647 11.1432 11.4751 11.3686 11.4751H15.1937C15.3053 11.4751 15.4159 11.497 15.519 11.5397C15.6222 11.5824 15.7159 11.645 15.7949 11.7239C15.8738 11.8029 15.9364 11.8966 15.9791 11.9998C16.0218 12.1029 16.0437 12.2135 16.0437 12.3251V16.1502C16.0437 16.2618 16.0218 16.3724 15.9791 16.4755C15.9364 16.5787 15.8738 16.6724 15.7949 16.7513C15.7159 16.8303 15.6222 16.8929 15.519 16.9356C15.4159 16.9783 15.3053 17.0002 15.1937 17.0002Z" fill="white"/>
<path d="M8.50008 17.0002C6.24653 16.9976 4.08604 16.1012 2.49254 14.5077C0.899039 12.9142 0.00264775 10.7537 0 8.50015C0 8.27472 0.0895541 8.05852 0.248961 7.89911C0.408369 7.7397 0.624572 7.65015 0.850008 7.65015C1.07544 7.65015 1.29165 7.7397 1.45105 7.89911C1.61046 8.05852 1.70002 8.27472 1.70002 8.50015C1.69908 9.9968 2.19223 11.4519 3.10292 12.6396C4.01362 13.8273 5.29092 14.6811 6.73655 15.0686C8.18218 15.456 9.71528 15.3554 11.0979 14.7823C12.4805 14.2093 13.6352 13.1959 14.3829 11.8993C14.4958 11.7043 14.6816 11.5621 14.8994 11.504C15.1172 11.446 15.3491 11.4768 15.5442 11.5897C15.7393 11.7027 15.8815 11.8885 15.9395 12.1063C15.9976 12.3241 15.9667 12.556 15.8538 12.751C15.1062 14.0401 14.0338 15.1107 12.7436 15.8563C11.4533 16.6018 9.99023 16.9962 8.50008 17.0002Z" fill="white"/>
</svg>
