<svg width="41" height="37" viewBox="0 0 41 37" fill="none" xmlns="http://www.w3.org/2000/svg">
<path d="M40.6338 21.8719C40.6265 21.7631 40.6091 21.6552 40.5817 21.5496L36.318 10.196C37.094 9.6941 37.7321 9.00613 38.1743 8.1947C38.6165 7.38326 38.8488 6.47412 38.85 5.55C38.85 5.05935 38.6551 4.5888 38.3082 4.24185C37.9612 3.89491 37.4907 3.7 37 3.7C36.5094 3.7 36.0388 3.89491 35.6919 4.24185C35.3449 4.5888 35.15 5.05935 35.15 5.55C35.1499 5.96227 35.0121 6.36268 34.7585 6.68773C34.5049 7.01277 34.15 7.24383 33.7502 7.34426C33.3503 7.44469 32.9284 7.40874 32.5513 7.2421C32.1742 7.07546 31.8635 6.78769 31.6686 6.42442C31.1939 5.58177 30.4997 4.88348 29.6599 4.40377C28.8201 3.92406 27.866 3.68086 26.899 3.7H22.2V1.85C22.2 1.35935 22.0051 0.888795 21.6582 0.541852C21.3112 0.19491 20.8407 0 20.35 0C19.8594 0 19.3888 0.19491 19.0419 0.541852C18.6949 0.888795 18.5 1.35935 18.5 1.85V3.7H13.801C12.834 3.68086 11.8799 3.92406 11.0401 4.40377C10.2003 4.88348 9.50613 5.58177 9.03141 6.42442C8.83647 6.78769 8.52581 7.07546 8.14872 7.2421C7.77164 7.40874 7.3497 7.44469 6.94985 7.34426C6.55001 7.24383 6.19514 7.01277 5.94155 6.68773C5.68795 6.36268 5.55015 5.96227 5.55 5.55C5.55 5.05935 5.35509 4.5888 5.00815 4.24185C4.66121 3.89491 4.19065 3.7 3.7 3.7C3.20935 3.7 2.7388 3.89491 2.39185 4.24185C2.04491 4.5888 1.85 5.05935 1.85 5.55C1.85121 6.47412 2.0835 7.38326 2.52572 8.1947C2.96794 9.00613 3.60606 9.6941 4.382 10.196L0.1184 21.5496C0.0910312 21.6552 0.0735717 21.7631 0.0662485 21.8719C0.0337596 21.9789 0.0115759 22.0888 0 22.2C0 22.2172 0.00497657 22.233 0.00508757 22.2501C0.00564257 22.2745 0.0106374 22.297 0.0123024 22.3213C0.0411072 24.2616 0.832124 26.1127 2.21445 27.4747C3.59678 28.8367 5.45944 29.6001 7.4 29.6001C9.34056 29.6001 11.2032 28.8367 12.5856 27.4747C13.9679 26.1127 14.7589 24.2616 14.7877 22.3213C14.7893 22.297 14.7944 22.2745 14.7949 22.2501C14.795 22.233 14.8 22.2172 14.8 22.2C14.7885 22.0888 14.7663 21.9789 14.7338 21.8719C14.7265 21.7631 14.709 21.6552 14.6817 21.5496L10.413 10.1828C11.197 9.68248 11.8421 8.99257 12.2888 8.17685C12.4502 7.92577 12.675 7.72172 12.9406 7.58532C13.2061 7.44892 13.5029 7.385 13.801 7.4H18.5V33.3H12.95C12.4594 33.3 11.9888 33.4949 11.6419 33.8419C11.2949 34.1888 11.1 34.6594 11.1 35.15C11.1 35.6407 11.2949 36.1112 11.6419 36.4581C11.9888 36.8051 12.4594 37 12.95 37H27.75C28.2407 37 28.7112 36.8051 29.0582 36.4581C29.4051 36.1112 29.6 35.6407 29.6 35.15C29.6 34.6594 29.4051 34.1888 29.0582 33.8419C28.7112 33.4949 28.2407 33.3 27.75 33.3H22.2V7.4H26.899C27.1971 7.38501 27.4939 7.44894 27.7594 7.58534C28.0249 7.72174 28.2497 7.92578 28.4112 8.17685C28.8578 8.99257 29.503 9.68248 30.2869 10.1828L26.0184 21.5496C25.991 21.6552 25.9736 21.7631 25.9663 21.8719C25.9338 21.9789 25.9116 22.0888 25.9 22.2C25.9 22.2172 25.905 22.233 25.9051 22.2501C25.9057 22.2745 25.9106 22.297 25.9123 22.3213C25.9411 24.2616 26.7321 26.1127 28.1145 27.4747C29.4968 28.8367 31.3594 29.6001 33.3 29.6001C35.2406 29.6001 37.1032 28.8367 38.4856 27.4747C39.8679 26.1127 40.6589 24.2616 40.6877 22.3213C40.6893 22.297 40.6944 22.2745 40.6949 22.2501C40.695 22.233 40.7 22.2172 40.7 22.2C40.6885 22.0888 40.6663 21.9789 40.6338 21.8719ZM7.4 12.6827L10.2793 20.35H4.52066L7.4 12.6827ZM10.5869 24.05C10.2604 24.6071 9.79536 25.0702 9.23692 25.3944C8.67848 25.7186 8.04567 25.8927 7.4 25.9C6.75071 25.8998 6.11292 25.7287 5.55066 25.404C4.98841 25.0792 4.5215 24.6123 4.19682 24.05H10.5869ZM33.3 12.6827L36.1794 20.35H30.4207L33.3 12.6827ZM33.3 25.9C32.6507 25.8998 32.0129 25.7287 31.4507 25.404C30.8884 25.0792 30.4215 24.6123 30.0968 24.05H36.4869C36.1604 24.6071 35.6954 25.0702 35.1369 25.3944C34.5785 25.7186 33.9457 25.8927 33.3 25.9Z" fill="#FF601A"/>
</svg>
