<svg width="483" height="483" viewBox="0 0 483 483" fill="none" xmlns="http://www.w3.org/2000/svg">
<path d="M261.203 312.038C239.538 312.052 218.607 304.184 202.317 289.901C200.621 288.668 199.032 287.295 197.568 285.795C193.851 282.037 191.762 276.967 191.752 271.68C191.742 266.394 193.813 261.317 197.516 257.545C201.22 253.773 206.258 251.609 211.544 251.522C216.829 251.434 221.936 253.43 225.763 257.077C226.655 257.611 227.468 258.268 228.178 259.029C237.61 267.538 249.956 272.09 262.654 271.741C275.352 271.393 287.43 266.17 296.381 257.157L387.89 165.629C397.003 156.229 402.054 143.622 401.952 130.53C401.851 117.438 396.605 104.911 387.347 95.6532C378.09 86.3955 365.563 81.1497 352.471 81.0482C339.379 80.9467 326.772 85.9977 317.372 95.1108L282.555 129.887C278.76 133.553 273.676 135.581 268.4 135.535C263.123 135.489 258.075 133.373 254.344 129.642C250.613 125.91 248.496 120.863 248.45 115.586C248.404 110.309 250.433 105.226 254.099 101.43L288.895 66.6339C305.796 49.7328 328.719 40.2378 352.621 40.2378C376.522 40.2378 399.445 49.7328 416.346 66.6339C433.248 83.535 442.743 106.458 442.743 130.36C442.743 154.262 433.248 177.184 416.346 194.086L324.818 285.614C316.473 293.991 306.556 300.638 295.636 305.172C284.715 309.707 273.007 312.04 261.183 312.038H261.203Z" fill="white" fill-opacity="0.8"/>
<path d="M130.37 442.71C112.542 442.726 95.1105 437.451 80.2822 427.554C65.454 417.657 53.8959 403.583 47.0714 387.113C40.2469 370.643 38.4629 352.519 41.9452 335.035C45.4276 317.55 54.0198 301.493 66.6338 288.894L158.182 197.386C174.246 181.253 195.844 171.833 218.596 171.037C241.348 170.241 263.552 178.128 280.703 193.099C282.399 194.332 283.988 195.705 285.453 197.205C289.17 200.963 291.259 206.034 291.269 211.32C291.278 216.606 289.208 221.683 285.504 225.455C281.801 229.227 276.762 231.391 271.477 231.478C266.192 231.566 261.084 229.571 257.258 225.923C256.365 225.389 255.552 224.732 254.843 223.971C245.412 215.458 233.066 210.903 220.366 211.251C207.666 211.6 195.588 216.825 186.639 225.843L95.1107 317.371C85.9976 326.771 80.9466 339.378 81.0481 352.47C81.1496 365.562 86.3954 378.089 95.6531 387.347C104.911 396.605 117.438 401.85 130.53 401.952C143.622 402.053 156.229 397.002 165.629 387.889L200.425 353.113C204.22 349.447 209.304 347.419 214.581 347.465C219.857 347.511 224.905 349.627 228.636 353.358C232.368 357.09 234.484 362.137 234.53 367.414C234.576 372.691 232.547 377.774 228.882 381.57L194.106 416.346C185.742 424.723 175.806 431.364 164.868 435.888C153.931 440.413 142.206 442.731 130.37 442.71Z" fill="#FF601A"/>
<path d="M130.37 442.71C112.542 442.726 95.1105 437.451 80.2822 427.554C65.454 417.657 53.8959 403.583 47.0714 387.113C40.2469 370.643 38.4629 352.519 41.9452 335.035C45.4276 317.55 54.0198 301.493 66.6338 288.894L158.182 197.386C174.246 181.253 195.844 171.833 218.596 171.037C241.348 170.241 263.552 178.128 280.703 193.099C282.399 194.332 283.988 195.705 285.453 197.205C289.17 200.963 291.259 206.034 291.269 211.32C291.278 216.606 289.208 221.683 285.504 225.455C281.801 229.227 276.762 231.391 271.477 231.478C266.192 231.566 261.084 229.571 257.258 225.923C256.365 225.389 255.552 224.732 254.843 223.971C245.412 215.458 233.066 210.903 220.366 211.251C207.666 211.6 195.588 216.825 186.639 225.843L95.1107 317.371C85.9976 326.771 80.9466 339.378 81.0481 352.47C81.1496 365.562 86.3954 378.089 95.6531 387.347C104.911 396.605 117.438 401.85 130.53 401.952C143.622 402.053 156.229 397.002 165.629 387.889L200.425 353.113C204.22 349.447 209.304 347.419 214.581 347.465C219.857 347.511 224.905 349.627 228.636 353.358C232.368 357.09 234.484 362.137 234.53 367.414C234.576 372.691 232.547 377.774 228.882 381.57L194.106 416.346C185.742 424.723 175.806 431.364 164.868 435.888C153.931 440.413 142.206 442.731 130.37 442.71Z" stroke="#FF601A"/>
<path d="M130.37 442.71C112.542 442.726 95.1105 437.451 80.2822 427.554C65.454 417.657 53.8959 403.583 47.0714 387.113C40.2469 370.643 38.4629 352.519 41.9452 335.035C45.4276 317.55 54.0198 301.493 66.6338 288.894L158.182 197.386C174.246 181.253 195.844 171.833 218.596 171.037C241.348 170.241 263.552 178.128 280.703 193.099C282.399 194.332 283.988 195.705 285.453 197.205C289.17 200.963 291.259 206.034 291.269 211.32C291.278 216.606 289.208 221.683 285.504 225.455C281.801 229.227 276.762 231.391 271.477 231.478C266.192 231.566 261.084 229.571 257.258 225.923C256.365 225.389 255.552 224.732 254.843 223.971C245.412 215.458 233.066 210.903 220.366 211.251C207.666 211.6 195.588 216.825 186.639 225.843L95.1107 317.371C85.9976 326.771 80.9466 339.378 81.0481 352.47C81.1496 365.562 86.3954 378.089 95.6531 387.347C104.911 396.605 117.438 401.85 130.53 401.952C143.622 402.053 156.229 397.002 165.629 387.889L200.425 353.113C204.22 349.447 209.304 347.419 214.581 347.465C219.857 347.511 224.905 349.627 228.636 353.358C232.368 357.09 234.484 362.137 234.53 367.414C234.576 372.691 232.547 377.774 228.882 381.57L194.106 416.346C185.742 424.723 175.806 431.364 164.868 435.888C153.931 440.413 142.206 442.731 130.37 442.71Z" stroke="url(#paint0_linear_89_62)" stroke-opacity="0.45"/>
<defs>
<linearGradient id="paint0_linear_89_62" x1="165.739" y1="170.982" x2="165.739" y2="442.71" gradientUnits="userSpaceOnUse">
<stop stop-color="white"/>
<stop offset="1" stop-color="#FF601A" stop-opacity="0"/>
</linearGradient>
</defs>
</svg>
