<svg width="61" height="42" viewBox="0 0 61 42" fill="none" xmlns="http://www.w3.org/2000/svg">
<g clip-path="url(#clip0_91_102)">
<mask id="mask0_91_102" style="mask-type:luminance" maskUnits="userSpaceOnUse" x="0" y="0" width="61" height="42">
<path d="M61 0H0V41.7963H61V0Z" fill="white"/>
</mask>
<g mask="url(#mask0_91_102)">
<path d="M22.8149 14.4811C22.8386 14.5075 22.8632 14.5336 22.8886 14.559C23.6665 15.3382 24.9277 15.3382 25.7053 14.559C26.4832 13.78 26.4832 12.5166 25.7053 11.7374C25.6951 11.7267 25.6841 11.7164 25.6734 11.7064L25.676 11.7039L22.8766 8.89941H17.2432L18.8745 10.5341L22.8149 14.4811Z" fill="#11385B"/>
<path d="M20.0427 17.3479L19.3546 16.6584L19.3438 16.6691L11.5885 8.90039H5.95508L16.5271 19.4907L16.533 19.4846L27.0994 30.0694V18.3874C24.8363 19.6083 21.9537 19.262 20.0427 17.3479Z" fill="#11385B"/>
<path d="M10.2003 24.4079L18.6746 32.8968H24.2881L21.6917 30.2956L13.7161 22.3062L13.71 22.3123L3.14355 11.7275V23.3682C5.40641 22.1475 8.28951 22.4936 10.2003 24.4079Z" fill="#11385B"/>
<path d="M8.08258 27.9493L8.09259 27.9395L7.42817 27.2737C7.40451 27.2471 7.37962 27.2212 7.35424 27.1957C6.57637 26.4165 5.31538 26.4165 4.53751 27.1957C3.75963 27.9747 3.75963 29.2384 4.53751 30.0176C4.548 30.0279 4.55898 30.0384 4.56923 30.0486L4.56703 30.0508L7.40768 32.8964H13.0216L8.08258 27.9493Z" fill="#11385B"/>
<path d="M5.95464 8.89985L4.56676 7.50982L4.5692 7.50738C4.55896 7.49735 4.54822 7.4866 4.53749 7.47633C3.75961 6.69711 3.75961 5.43369 4.53749 4.65472C5.31536 3.8755 6.57635 3.8755 7.35422 4.65472C7.3796 4.68014 7.40424 4.70605 7.42815 4.73269L11.5881 8.89985H17.2431L10.8993 2.5451L10.8886 2.55586L10.2007 1.86634C7.86687 -0.471072 4.08365 -0.471072 1.75003 1.86634C-0.583343 4.20425 -0.583343 7.99378 1.75003 10.3314L3.144 11.7276V8.89985H5.95464Z" fill="#E81C8A"/>
<path d="M24.2884 32.8971L25.6763 34.2869L25.6736 34.2895C25.6844 34.2996 25.6951 34.3103 25.7058 34.3206C26.4835 35.0998 26.4835 36.3635 25.7058 37.1422C24.928 37.9214 23.6667 37.9214 22.8891 37.1422C22.8637 37.1173 22.8388 37.0909 22.8152 37.0642L22.1507 36.3987L22.1607 36.3889L18.6747 32.8971H13.0215L20.0426 39.9306C22.3762 42.268 26.1594 42.268 28.493 39.9306C30.8264 37.5927 30.8264 33.8031 28.493 31.4655L27.0996 30.0693V32.8971H24.2884Z" fill="#E81C8A"/>
<path d="M19.3434 16.6684L19.3542 16.6576L20.0422 17.3472C21.9533 19.2615 24.8359 19.6076 27.099 18.3867V8.89941H22.8766L25.676 11.7039L25.6733 11.7061C25.6843 11.7164 25.695 11.7269 25.7052 11.7374C26.4831 12.5166 26.4831 13.7798 25.7052 14.559C24.9274 15.3382 23.6664 15.3382 22.8885 14.559C22.8631 14.5336 22.8387 14.5075 22.8146 14.4811L18.8747 10.5341L17.2431 8.89941H11.5879L19.3434 16.6684Z" fill="#7D3F97"/>
<path d="M13.7156 22.3055L24.2881 32.8964H27.099V30.0686L16.5323 19.4839L16.5265 19.49L8.55084 11.5006L5.95419 8.89941H3.14355V11.7269L13.7095 22.3119L13.7156 22.3055Z" fill="#7D3F97"/>
<path d="M4.56925 30.0491C4.55851 30.039 4.54777 30.0283 4.53728 30.0178C3.75965 29.2388 3.75965 27.9754 4.53728 27.1959C5.31515 26.4167 6.57639 26.4167 7.35402 27.1959C7.37964 27.2216 7.40404 27.2477 7.42771 27.2744L8.09236 27.9399L8.08236 27.9497L13.0214 32.8971H18.6746L10.2003 24.408C8.28927 22.4942 5.40641 22.1476 3.14355 23.3685V32.8971H7.4077L4.56681 30.0513L4.56925 30.0491Z" fill="#7D3F97"/>
<path d="M32.6272 14.8493C32.1838 14.8493 31.7793 14.7892 31.414 14.6692C31.0485 14.5491 30.7249 14.381 30.4434 14.1649L30.9196 13.4448C31.1832 13.6308 31.4589 13.7675 31.7463 13.8545C32.034 13.9415 32.3097 13.985 32.5732 13.985C32.9688 13.985 33.2713 13.9173 33.4809 13.7824C33.6905 13.6472 33.7954 13.4448 33.7954 13.1748C33.7954 13.0127 33.7596 12.8775 33.6876 12.7695C33.6158 12.6615 33.4929 12.5625 33.3191 12.4725C33.1454 12.3823 32.8939 12.2775 32.5642 12.1575L32.3934 12.0944C32.0101 11.9502 31.7029 11.8123 31.4723 11.6801C31.2417 11.5481 31.0543 11.3756 30.9106 11.1627C30.7669 10.9495 30.6949 10.6809 30.6949 10.3568C30.6949 10.0087 30.7923 9.71617 30.987 9.47908C31.1817 9.24199 31.4347 9.06649 31.7463 8.95235C32.0579 8.83845 32.3905 8.78125 32.744 8.78125C33.4751 8.78125 34.1429 8.98534 34.748 9.39353L34.2781 10.1138C34.0067 9.94568 33.7522 9.82274 33.5141 9.74452C33.276 9.66655 33.0122 9.62769 32.7228 9.62769C32.4156 9.62769 32.1716 9.6861 31.9906 9.80318C31.8098 9.92026 31.7195 10.0928 31.7195 10.3209C31.7195 10.4467 31.7527 10.5562 31.8188 10.6494C31.8852 10.7425 31.9996 10.8339 32.1623 10.9239C32.3251 11.0141 32.5571 11.113 32.8582 11.2211L33.039 11.2841C33.4309 11.4222 33.7471 11.5557 33.9882 11.6847C34.2293 11.8138 34.4342 11.9937 34.6028 12.2249C34.7717 12.4559 34.8559 12.7546 34.8559 13.1207C34.8559 13.4927 34.7617 13.8093 34.5728 14.0706C34.3842 14.3316 34.1236 14.5267 33.791 14.6557C33.4585 14.7848 33.0705 14.8493 32.6272 14.8493Z" fill="#11385B"/>
<path d="M37.1564 13.8771H39.9334V14.7323H36.1318V8.89844H39.8885V9.74463H37.1564V11.3473H39.529L39.4122 12.1754H37.1564V13.8771Z" fill="#11385B"/>
<path d="M42.297 13.8409H45.065V14.7323H41.2725V8.89844H42.297V13.8409Z" fill="#11385B"/>
<path d="M47.1505 13.8771H49.9275V14.7323H46.126V8.89844H49.8826V9.74463H47.1505V11.3473H49.5232L49.4063 12.1754H47.1505V13.8771Z" fill="#11385B"/>
<path d="M53.6845 14.8493C53.0554 14.8493 52.5372 14.7246 52.1297 14.4756C51.7222 14.2265 51.4228 13.877 51.231 13.4267C51.0393 12.9765 50.9434 12.4486 50.9434 11.8422C50.9434 11.1221 51.0678 10.5338 51.3164 10.0777C51.5651 9.62158 51.893 9.29136 52.3005 9.08751C52.708 8.88342 53.1603 8.78125 53.6576 8.78125C54.0229 8.78125 54.3601 8.82622 54.6685 8.91642C54.9772 9.00636 55.2783 9.13835 55.5718 9.31238L55.1563 10.0777C54.6866 9.7956 54.202 9.65457 53.702 9.65457C53.1179 9.65457 52.6887 9.84204 52.4149 10.2172C52.1409 10.5924 52.0038 11.116 52.0038 11.7881C52.0038 12.4784 52.1543 13.0142 52.4554 13.3952C52.7565 13.7763 53.1901 13.9669 53.7562 13.9669C54.0451 13.9669 54.301 13.9293 54.5238 13.8545C54.7466 13.7795 54.9755 13.6729 55.2104 13.5348L55.6167 14.2729C55.2931 14.4651 54.9801 14.609 54.6775 14.7051C54.375 14.8011 54.0439 14.8493 53.6845 14.8493Z" fill="#11385B"/>
<path d="M60.9996 8.89844V9.7808H59.0764V14.7323H58.0519V9.7808H56.1016V8.89844H60.9996Z" fill="#11385B"/>
<path d="M33.3368 24.4174C32.7075 24.4174 32.1893 24.293 31.782 24.0439C31.3746 23.7949 31.0749 23.4453 30.8831 22.9951C30.6916 22.5449 30.5957 22.0167 30.5957 21.4105C30.5957 20.6904 30.7199 20.1021 30.9685 19.646C31.2172 19.1899 31.5454 18.8597 31.9526 18.6556C32.3601 18.4518 32.8124 18.3496 33.3097 18.3496C33.6752 18.3496 34.0122 18.3946 34.3209 18.4848C34.6295 18.5747 34.9304 18.7067 35.2241 18.8807L34.8086 19.646C34.3389 19.364 33.8541 19.2229 33.3544 19.2229C32.7702 19.2229 32.341 19.4104 32.067 19.7856C31.793 20.1608 31.6561 20.6843 31.6561 21.3565C31.6561 22.0467 31.8067 22.5825 32.1078 22.9636C32.4089 23.3446 32.8425 23.5353 33.4083 23.5353C33.6974 23.5353 33.9531 23.4976 34.1762 23.4226C34.3989 23.3476 34.6278 23.2412 34.8625 23.1031L35.269 23.8413C34.9455 24.0334 34.6324 24.1774 34.3299 24.2734C34.0273 24.3695 33.6962 24.4174 33.3368 24.4174Z" fill="#11385B"/>
<path d="M36.2041 24.3007V18.1068L37.1747 18.0078V24.3007H36.2041Z" fill="#11385B"/>
<path d="M42.0993 20.2227V24.3011H41.2543L41.1826 23.9948C40.715 24.2769 40.2449 24.4179 39.7715 24.4179C39.394 24.4179 39.0929 24.3099 38.8682 24.0938C38.6435 23.8778 38.5312 23.5688 38.5312 23.1667V20.3219L39.5019 20.2227V22.8786C39.5019 23.0587 39.5214 23.2027 39.5602 23.3107C39.5992 23.4187 39.6666 23.4982 39.7625 23.5493C39.8584 23.6003 39.9901 23.6258 40.158 23.6258C40.4215 23.6258 40.7451 23.5238 41.1286 23.3197V20.3219L42.0993 20.2227Z" fill="#11385B"/>
<path d="M45.7665 20.1864C46.2938 20.1864 46.6893 20.3665 46.9528 20.7265C47.2166 21.0866 47.3484 21.5818 47.3484 22.2119C47.3484 22.7401 47.2361 23.1693 47.0114 23.4995C46.7867 23.8295 46.5005 24.0651 46.153 24.2061C45.8056 24.3472 45.4371 24.4176 45.0477 24.4176C44.8501 24.4176 44.6192 24.3982 44.3557 24.3591C44.0919 24.32 43.8104 24.2555 43.5107 24.1656V18.1068L44.4814 18.0078V20.5645C44.9189 20.3125 45.3473 20.1864 45.7665 20.1864ZM45.0052 23.6616C45.4086 23.6616 45.7324 23.5445 45.9761 23.3103C46.2199 23.0762 46.3419 22.7042 46.3419 22.194C46.3419 21.7797 46.2726 21.4723 46.1342 21.2711C45.9956 21.0702 45.7729 20.9697 45.4659 20.9697C45.1829 20.9697 44.8547 21.0567 44.4814 21.2308V23.6075C44.6619 23.6435 44.8366 23.6616 45.0052 23.6616Z" fill="#11385B"/>
</g>
</g>
<defs>
<clipPath id="clip0_91_102">
<rect width="61" height="41.7963" fill="white"/>
</clipPath>
</defs>
</svg>
