<svg width="36" height="50" viewBox="0 0 36 50" fill="none" xmlns="http://www.w3.org/2000/svg">
<path d="M25.3098 11.2254C25.3098 14.5572 25.3098 17.8889 25.3098 21.2205C25.3098 21.2493 25.3105 21.278 25.3094 21.3068C25.3065 21.3918 25.3456 21.4363 25.433 21.436C25.4735 21.4358 25.5142 21.4372 25.5547 21.4372C28.6138 21.4372 31.6729 21.437 34.732 21.437C34.7494 21.437 34.7667 21.4369 34.7841 21.437C34.996 21.4377 34.9984 21.4381 34.9984 21.6486C34.999 23.9157 34.9984 26.1829 35 28.45C35 28.5604 34.9689 28.6426 34.8862 28.7236C34.4464 29.1534 34.014 29.5908 33.5784 30.0247C33.2897 30.3124 33.0001 30.5991 32.7105 30.8859C32.4656 31.1284 32.219 31.3691 31.9755 31.6129C31.5981 31.9907 31.2288 32.3765 30.8443 32.7471C30.5959 32.9864 30.3536 33.2316 30.1074 33.4727C29.6806 33.8906 29.2574 34.3121 28.8347 34.734C28.5095 35.0584 28.193 35.3919 27.8613 35.7098C27.6081 35.9528 27.3628 36.2032 27.1117 36.448C26.8364 36.7166 26.5628 36.9866 26.2896 37.257C26.0078 37.5359 25.7273 37.816 25.4464 38.0959C25.1332 38.4081 24.8207 38.7209 24.5073 39.0329C24.2184 39.3206 23.9288 39.6076 23.6394 39.8948C23.3415 40.1901 23.0389 40.4807 22.7464 40.7812C22.4262 41.1101 22.0963 41.4292 21.7816 41.7641C21.5422 42.0188 21.2858 42.2605 21.0335 42.5045C20.7694 42.7599 20.5096 43.0198 20.2489 43.2785C19.9348 43.5904 19.6218 43.9034 19.308 44.2156C19.015 44.5075 18.7218 44.7993 18.4282 45.0906C18.1673 45.3493 17.905 45.6068 17.6443 45.8658C17.326 46.182 17.0095 46.4996 16.6913 46.8157C16.3045 47.1998 15.9169 47.583 15.5297 47.9667C15.2233 48.2702 14.9146 48.5717 14.6116 48.8788C14.5282 48.9634 14.438 49.0002 14.32 49C13.1728 48.9978 12.0256 48.9986 10.8785 48.9983C10.7269 48.9983 10.7015 48.9731 10.6963 48.8171C10.6946 48.7653 10.696 48.7135 10.696 48.6617C10.696 42.0961 10.6961 35.5306 10.6961 28.965C10.6961 28.6961 10.6906 28.6899 10.4285 28.6899C7.36363 28.6899 4.29879 28.6899 1.23395 28.6901C1.20493 28.6901 1.1759 28.6892 1.14705 28.6911C1.0584 28.6972 1.01999 28.6516 1.01564 28.5687C1.01165 28.4941 1.00313 28.4195 1.00313 28.3449C1.00243 26.0893 1.00382 23.8335 1 21.5779C0.999827 21.4327 1.04554 21.3303 1.14931 21.2312C1.44844 20.9452 1.7387 20.6501 2.03227 20.3585C2.33401 20.0587 2.64149 19.7643 2.93593 19.4576C3.25835 19.1219 3.59554 18.8009 3.92301 18.4703C4.15331 18.2377 4.39126 18.0112 4.62347 17.78C4.96553 17.4393 5.30934 17.1003 5.64862 16.7568C5.82556 16.5776 6.00858 16.4014 6.18952 16.225C6.43616 15.9844 6.66299 15.7242 6.90511 15.4788C7.1594 15.221 7.42238 14.9716 7.68031 14.7173C7.97041 14.4309 8.25894 14.1431 8.54833 13.8559C8.83773 13.5686 9.1273 13.2814 9.4167 12.9939C9.7101 12.7024 10.0031 12.4106 10.2965 12.1191C10.5858 11.8319 10.8753 11.5451 11.1646 11.2577C11.454 10.9702 11.7432 10.6823 12.0326 10.3948C12.285 10.1441 12.5375 9.89336 12.7901 9.6428C13.0795 9.35545 13.3718 9.07104 13.6576 8.78007C14.0118 8.41934 14.3745 8.06706 14.7312 7.70875C14.9658 7.47303 15.209 7.24354 15.4426 7.00696C15.7777 6.66764 16.1203 6.33574 16.4558 5.99677C16.6935 5.75639 16.941 5.52379 17.1793 5.28359C17.5152 4.94513 17.8536 4.60874 18.1916 4.27287C18.554 3.91283 18.9185 3.55399 19.2818 3.19447C19.6411 2.83909 19.9998 2.48284 20.3554 2.12383C20.6017 1.875 20.8494 1.62633 21.104 1.38527C21.1871 1.30653 21.2664 1.22347 21.3465 1.14213C21.4475 1.03973 21.5514 0.99915 21.6971 1.00001C22.8326 1.00588 23.9683 1.00347 25.1038 1.00312C25.3099 1.00312 25.3101 1.00226 25.3101 1.21293C25.3101 3.95203 25.3101 6.69095 25.3101 9.43005C25.3101 10.0286 25.3098 10.6269 25.3098 11.2254ZM13.3824 21.4377C14.431 21.4377 15.4796 21.4382 16.5282 21.4369C16.8189 21.4365 16.7963 21.431 16.7961 21.6959C16.7959 25.4245 16.7956 29.153 16.7966 32.8816C16.7968 33.2384 16.7803 33.5937 16.741 33.9481C16.7189 34.1481 16.7149 34.3518 16.6716 34.547C16.6218 34.7709 16.5985 34.9996 16.5369 35.2221C16.5048 35.3385 16.453 35.4466 16.4234 35.5637C16.3605 35.8131 16.2722 36.0548 16.177 36.2943C16.1446 36.3755 16.0878 36.4408 16.0598 36.5226C15.9965 36.7072 15.9049 36.8799 15.8074 37.0474C15.672 37.2804 15.5194 37.5035 15.3727 37.7299C15.2877 37.8611 15.2841 37.9062 15.3797 38.0222C15.5076 38.1776 15.6142 38.3489 15.7527 38.4966C15.8563 38.6069 15.8683 38.6143 15.9819 38.5031C16.2613 38.2301 16.5328 37.949 16.8182 37.6825C17.0578 37.4587 17.281 37.2191 17.5242 36.9978C17.8682 36.6849 18.1829 36.3406 18.5134 36.0127C18.7499 35.7778 18.9938 35.5504 19.2302 35.3154C19.5766 34.9711 19.9172 34.6212 20.264 34.2772C20.5576 33.9861 20.8506 33.6937 21.1548 33.4136C21.3794 33.2069 21.5921 32.988 21.8061 32.7723C22.1747 32.4005 22.5474 32.0323 22.9193 31.664C23.1272 31.458 23.3365 31.2516 23.5445 31.046C23.7774 30.8158 24.0112 30.5861 24.248 30.3597C24.5014 30.1175 24.7423 29.8626 24.9964 29.6213C25.2258 29.4034 25.433 29.1639 25.6744 28.9579C25.7789 28.8688 25.8668 28.7602 25.96 28.6585C25.9864 28.6298 26.0174 28.5975 25.9963 28.5517C25.975 28.5051 25.9299 28.5139 25.891 28.5119C25.8564 28.51 25.8215 28.5126 25.7867 28.5112C25.5549 28.502 25.3239 28.5303 25.0925 28.5305C23.1981 28.5324 21.3036 28.5317 19.4092 28.5317C19.2171 28.5317 19.2168 28.5314 19.2147 28.3388C19.2145 28.3216 19.2147 28.3043 19.2147 28.287C19.2147 24.4435 19.2143 20.5997 19.2157 16.7561C19.2157 16.5781 19.2182 16.3987 19.2395 16.2222C19.3138 15.6128 19.3682 15.0018 19.5762 14.4139C19.716 14.0189 19.8383 13.6214 20.0333 13.2465C20.2165 12.8942 20.4116 12.5515 20.6445 12.2299C20.715 12.1325 20.7131 12.0693 20.633 11.9664C20.5132 11.8124 20.3916 11.6599 20.2697 11.5074C20.1637 11.3746 20.1427 11.3693 20.0113 11.491C19.7926 11.6934 19.5783 11.9005 19.3656 12.1089C19.0742 12.3943 18.7878 12.6848 18.4958 12.9695C18.2448 13.2142 17.9996 13.4646 17.7467 13.7076C17.3945 14.0457 17.0603 14.4021 16.7125 14.7447C16.4627 14.9906 16.2003 15.2236 15.9488 15.4677C15.7219 15.6879 15.5034 15.9169 15.2789 16.1395C15.0667 16.3498 14.8494 16.5553 14.6375 16.7663C14.4135 16.9892 14.2002 17.2234 13.9694 17.4391C13.7634 17.6316 13.5646 17.8319 13.369 18.0333C13.1443 18.2647 12.9013 18.4762 12.6727 18.7031C12.4567 18.9176 12.2385 19.1314 12.0223 19.3457C11.8023 19.5638 11.5852 19.786 11.3632 20.0022C11.1573 20.2027 10.9544 20.4073 10.7524 20.6113C10.542 20.8237 10.3077 21.0134 10.1203 21.248C10.0807 21.2975 9.97134 21.316 10.0115 21.3996C10.0445 21.4685 10.1358 21.4374 10.2016 21.4376C11.2619 21.4381 12.3222 21.4377 13.3824 21.4377Z" fill="#FF601A"/>
<path d="M25.3098 11.2254C25.3098 14.5572 25.3098 17.8889 25.3098 21.2205C25.3098 21.2493 25.3105 21.278 25.3094 21.3068C25.3065 21.3918 25.3456 21.4363 25.433 21.436C25.4735 21.4358 25.5142 21.4372 25.5547 21.4372C28.6138 21.4372 31.6729 21.437 34.732 21.437C34.7494 21.437 34.7667 21.4369 34.7841 21.437C34.996 21.4377 34.9984 21.4381 34.9984 21.6486C34.999 23.9157 34.9984 26.1829 35 28.45C35 28.5604 34.9689 28.6426 34.8862 28.7236C34.4464 29.1534 34.014 29.5908 33.5784 30.0247C33.2897 30.3124 33.0001 30.5991 32.7105 30.8859C32.4656 31.1284 32.219 31.3691 31.9755 31.6129C31.5981 31.9907 31.2288 32.3765 30.8443 32.7471C30.5959 32.9864 30.3536 33.2316 30.1074 33.4727C29.6806 33.8906 29.2574 34.3121 28.8347 34.734C28.5095 35.0584 28.193 35.3919 27.8613 35.7098C27.6081 35.9528 27.3628 36.2032 27.1117 36.448C26.8364 36.7166 26.5628 36.9866 26.2896 37.257C26.0078 37.5359 25.7273 37.816 25.4464 38.0959C25.1332 38.4081 24.8207 38.7209 24.5073 39.0329C24.2184 39.3206 23.9288 39.6076 23.6394 39.8948C23.3415 40.1901 23.0389 40.4807 22.7464 40.7812C22.4262 41.1101 22.0963 41.4292 21.7816 41.7641C21.5422 42.0188 21.2858 42.2605 21.0335 42.5045C20.7694 42.7599 20.5096 43.0198 20.2489 43.2785C19.9348 43.5904 19.6218 43.9034 19.308 44.2156C19.015 44.5075 18.7218 44.7993 18.4282 45.0906C18.1673 45.3493 17.905 45.6068 17.6443 45.8658C17.326 46.182 17.0095 46.4996 16.6913 46.8157C16.3045 47.1998 15.9169 47.583 15.5297 47.9667C15.2233 48.2702 14.9146 48.5717 14.6116 48.8788C14.5282 48.9634 14.438 49.0002 14.32 49C13.1728 48.9978 12.0256 48.9986 10.8785 48.9983C10.7269 48.9983 10.7015 48.9731 10.6963 48.8171C10.6946 48.7653 10.696 48.7135 10.696 48.6617C10.696 42.0961 10.6961 35.5306 10.6961 28.965C10.6961 28.6961 10.6906 28.6899 10.4285 28.6899C7.36363 28.6899 4.29879 28.6899 1.23395 28.6901C1.20493 28.6901 1.1759 28.6892 1.14705 28.6911C1.0584 28.6972 1.01999 28.6516 1.01564 28.5687C1.01165 28.4941 1.00313 28.4195 1.00313 28.3449C1.00243 26.0893 1.00382 23.8335 1 21.5779C0.999827 21.4327 1.04554 21.3303 1.14931 21.2312C1.44844 20.9452 1.7387 20.6501 2.03227 20.3585C2.33401 20.0587 2.64149 19.7643 2.93593 19.4576C3.25835 19.1219 3.59554 18.8009 3.92301 18.4703C4.15331 18.2377 4.39126 18.0112 4.62347 17.78C4.96553 17.4393 5.30934 17.1003 5.64862 16.7568C5.82556 16.5776 6.00858 16.4014 6.18952 16.225C6.43616 15.9844 6.66299 15.7242 6.90511 15.4788C7.1594 15.221 7.42238 14.9716 7.68031 14.7173C7.97041 14.4309 8.25894 14.1431 8.54833 13.8559C8.83773 13.5686 9.1273 13.2814 9.4167 12.9939C9.7101 12.7024 10.0031 12.4106 10.2965 12.1191C10.5858 11.8319 10.8753 11.5451 11.1646 11.2577C11.454 10.9702 11.7432 10.6823 12.0326 10.3948C12.285 10.1441 12.5375 9.89336 12.7901 9.6428C13.0795 9.35545 13.3718 9.07104 13.6576 8.78007C14.0118 8.41934 14.3745 8.06706 14.7312 7.70875C14.9658 7.47303 15.209 7.24354 15.4426 7.00696C15.7777 6.66764 16.1203 6.33574 16.4558 5.99677C16.6935 5.75639 16.941 5.52379 17.1793 5.28359C17.5152 4.94513 17.8536 4.60874 18.1916 4.27287C18.554 3.91283 18.9185 3.55399 19.2818 3.19447C19.6411 2.83909 19.9998 2.48284 20.3554 2.12383C20.6017 1.875 20.8494 1.62633 21.104 1.38527C21.1871 1.30653 21.2664 1.22347 21.3465 1.14213C21.4475 1.03973 21.5514 0.99915 21.6971 1.00001C22.8326 1.00588 23.9683 1.00347 25.1038 1.00312C25.3099 1.00312 25.3101 1.00226 25.3101 1.21293C25.3101 3.95203 25.3101 6.69095 25.3101 9.43005C25.3101 10.0286 25.3098 10.6269 25.3098 11.2254ZM13.3824 21.4377C14.431 21.4377 15.4796 21.4382 16.5282 21.4369C16.8189 21.4365 16.7963 21.431 16.7961 21.6959C16.7959 25.4245 16.7956 29.153 16.7966 32.8816C16.7968 33.2384 16.7803 33.5937 16.741 33.9481C16.7189 34.1481 16.7149 34.3518 16.6716 34.547C16.6218 34.7709 16.5985 34.9996 16.5369 35.2221C16.5048 35.3385 16.453 35.4466 16.4234 35.5637C16.3605 35.8131 16.2722 36.0548 16.177 36.2943C16.1446 36.3755 16.0878 36.4408 16.0598 36.5226C15.9965 36.7072 15.9049 36.8799 15.8074 37.0474C15.672 37.2804 15.5194 37.5035 15.3727 37.7299C15.2877 37.8611 15.2841 37.9062 15.3797 38.0222C15.5076 38.1776 15.6142 38.3489 15.7527 38.4966C15.8563 38.6069 15.8683 38.6143 15.9819 38.5031C16.2613 38.2301 16.5328 37.949 16.8182 37.6825C17.0578 37.4587 17.281 37.2191 17.5242 36.9978C17.8682 36.6849 18.1829 36.3406 18.5134 36.0127C18.7499 35.7778 18.9938 35.5504 19.2302 35.3154C19.5766 34.9711 19.9172 34.6212 20.264 34.2772C20.5576 33.9861 20.8506 33.6937 21.1548 33.4136C21.3794 33.2069 21.5921 32.988 21.8061 32.7723C22.1747 32.4005 22.5474 32.0323 22.9193 31.664C23.1272 31.458 23.3365 31.2516 23.5445 31.046C23.7774 30.8158 24.0112 30.5861 24.248 30.3597C24.5014 30.1175 24.7423 29.8626 24.9964 29.6213C25.2258 29.4034 25.433 29.1639 25.6744 28.9579C25.7789 28.8688 25.8668 28.7602 25.96 28.6585C25.9864 28.6298 26.0174 28.5975 25.9963 28.5517C25.975 28.5051 25.9299 28.5139 25.891 28.5119C25.8564 28.51 25.8215 28.5126 25.7867 28.5112C25.5549 28.502 25.3239 28.5303 25.0925 28.5305C23.1981 28.5324 21.3036 28.5317 19.4092 28.5317C19.2171 28.5317 19.2168 28.5314 19.2147 28.3388C19.2145 28.3216 19.2147 28.3043 19.2147 28.287C19.2147 24.4435 19.2143 20.5997 19.2157 16.7561C19.2157 16.5781 19.2182 16.3987 19.2395 16.2222C19.3138 15.6128 19.3682 15.0018 19.5762 14.4139C19.716 14.0189 19.8383 13.6214 20.0333 13.2465C20.2165 12.8942 20.4116 12.5515 20.6445 12.2299C20.715 12.1325 20.7131 12.0693 20.633 11.9664C20.5132 11.8124 20.3916 11.6599 20.2697 11.5074C20.1637 11.3746 20.1427 11.3693 20.0113 11.491C19.7926 11.6934 19.5783 11.9005 19.3656 12.1089C19.0742 12.3943 18.7878 12.6848 18.4958 12.9695C18.2448 13.2142 17.9996 13.4646 17.7467 13.7076C17.3945 14.0457 17.0603 14.4021 16.7125 14.7447C16.4627 14.9906 16.2003 15.2236 15.9488 15.4677C15.7219 15.6879 15.5034 15.9169 15.2789 16.1395C15.0667 16.3498 14.8494 16.5553 14.6375 16.7663C14.4135 16.9892 14.2002 17.2234 13.9694 17.4391C13.7634 17.6316 13.5646 17.8319 13.369 18.0333C13.1443 18.2647 12.9013 18.4762 12.6727 18.7031C12.4567 18.9176 12.2385 19.1314 12.0223 19.3457C11.8023 19.5638 11.5852 19.786 11.3632 20.0022C11.1573 20.2027 10.9544 20.4073 10.7524 20.6113C10.542 20.8237 10.3077 21.0134 10.1203 21.248C10.0807 21.2975 9.97134 21.316 10.0115 21.3996C10.0445 21.4685 10.1358 21.4374 10.2016 21.4376C11.2619 21.4381 12.3222 21.4377 13.3824 21.4377Z" stroke="#FF601A"/>
<path d="M25.3098 11.2254C25.3098 14.5572 25.3098 17.8889 25.3098 21.2205C25.3098 21.2493 25.3105 21.278 25.3094 21.3068C25.3065 21.3918 25.3456 21.4363 25.433 21.436C25.4735 21.4358 25.5142 21.4372 25.5547 21.4372C28.6138 21.4372 31.6729 21.437 34.732 21.437C34.7494 21.437 34.7667 21.4369 34.7841 21.437C34.996 21.4377 34.9984 21.4381 34.9984 21.6486C34.999 23.9157 34.9984 26.1829 35 28.45C35 28.5604 34.9689 28.6426 34.8862 28.7236C34.4464 29.1534 34.014 29.5908 33.5784 30.0247C33.2897 30.3124 33.0001 30.5991 32.7105 30.8859C32.4656 31.1284 32.219 31.3691 31.9755 31.6129C31.5981 31.9907 31.2288 32.3765 30.8443 32.7471C30.5959 32.9864 30.3536 33.2316 30.1074 33.4727C29.6806 33.8906 29.2574 34.3121 28.8347 34.734C28.5095 35.0584 28.193 35.3919 27.8613 35.7098C27.6081 35.9528 27.3628 36.2032 27.1117 36.448C26.8364 36.7166 26.5628 36.9866 26.2896 37.257C26.0078 37.5359 25.7273 37.816 25.4464 38.0959C25.1332 38.4081 24.8207 38.7209 24.5073 39.0329C24.2184 39.3206 23.9288 39.6076 23.6394 39.8948C23.3415 40.1901 23.0389 40.4807 22.7464 40.7812C22.4262 41.1101 22.0963 41.4292 21.7816 41.7641C21.5422 42.0188 21.2858 42.2605 21.0335 42.5045C20.7694 42.7599 20.5096 43.0198 20.2489 43.2785C19.9348 43.5904 19.6218 43.9034 19.308 44.2156C19.015 44.5075 18.7218 44.7993 18.4282 45.0906C18.1673 45.3493 17.905 45.6068 17.6443 45.8658C17.326 46.182 17.0095 46.4996 16.6913 46.8157C16.3045 47.1998 15.9169 47.583 15.5297 47.9667C15.2233 48.2702 14.9146 48.5717 14.6116 48.8788C14.5282 48.9634 14.438 49.0002 14.32 49C13.1728 48.9978 12.0256 48.9986 10.8785 48.9983C10.7269 48.9983 10.7015 48.9731 10.6963 48.8171C10.6946 48.7653 10.696 48.7135 10.696 48.6617C10.696 42.0961 10.6961 35.5306 10.6961 28.965C10.6961 28.6961 10.6906 28.6899 10.4285 28.6899C7.36363 28.6899 4.29879 28.6899 1.23395 28.6901C1.20493 28.6901 1.1759 28.6892 1.14705 28.6911C1.0584 28.6972 1.01999 28.6516 1.01564 28.5687C1.01165 28.4941 1.00313 28.4195 1.00313 28.3449C1.00243 26.0893 1.00382 23.8335 1 21.5779C0.999827 21.4327 1.04554 21.3303 1.14931 21.2312C1.44844 20.9452 1.7387 20.6501 2.03227 20.3585C2.33401 20.0587 2.64149 19.7643 2.93593 19.4576C3.25835 19.1219 3.59554 18.8009 3.92301 18.4703C4.15331 18.2377 4.39126 18.0112 4.62347 17.78C4.96553 17.4393 5.30934 17.1003 5.64862 16.7568C5.82556 16.5776 6.00858 16.4014 6.18952 16.225C6.43616 15.9844 6.66299 15.7242 6.90511 15.4788C7.1594 15.221 7.42238 14.9716 7.68031 14.7173C7.97041 14.4309 8.25894 14.1431 8.54833 13.8559C8.83773 13.5686 9.1273 13.2814 9.4167 12.9939C9.7101 12.7024 10.0031 12.4106 10.2965 12.1191C10.5858 11.8319 10.8753 11.5451 11.1646 11.2577C11.454 10.9702 11.7432 10.6823 12.0326 10.3948C12.285 10.1441 12.5375 9.89336 12.7901 9.6428C13.0795 9.35545 13.3718 9.07104 13.6576 8.78007C14.0118 8.41934 14.3745 8.06706 14.7312 7.70875C14.9658 7.47303 15.209 7.24354 15.4426 7.00696C15.7777 6.66764 16.1203 6.33574 16.4558 5.99677C16.6935 5.75639 16.941 5.52379 17.1793 5.28359C17.5152 4.94513 17.8536 4.60874 18.1916 4.27287C18.554 3.91283 18.9185 3.55399 19.2818 3.19447C19.6411 2.83909 19.9998 2.48284 20.3554 2.12383C20.6017 1.875 20.8494 1.62633 21.104 1.38527C21.1871 1.30653 21.2664 1.22347 21.3465 1.14213C21.4475 1.03973 21.5514 0.99915 21.6971 1.00001C22.8326 1.00588 23.9683 1.00347 25.1038 1.00312C25.3099 1.00312 25.3101 1.00226 25.3101 1.21293C25.3101 3.95203 25.3101 6.69095 25.3101 9.43005C25.3101 10.0286 25.3098 10.6269 25.3098 11.2254ZM13.3824 21.4377C14.431 21.4377 15.4796 21.4382 16.5282 21.4369C16.8189 21.4365 16.7963 21.431 16.7961 21.6959C16.7959 25.4245 16.7956 29.153 16.7966 32.8816C16.7968 33.2384 16.7803 33.5937 16.741 33.9481C16.7189 34.1481 16.7149 34.3518 16.6716 34.547C16.6218 34.7709 16.5985 34.9996 16.5369 35.2221C16.5048 35.3385 16.453 35.4466 16.4234 35.5637C16.3605 35.8131 16.2722 36.0548 16.177 36.2943C16.1446 36.3755 16.0878 36.4408 16.0598 36.5226C15.9965 36.7072 15.9049 36.8799 15.8074 37.0474C15.672 37.2804 15.5194 37.5035 15.3727 37.7299C15.2877 37.8611 15.2841 37.9062 15.3797 38.0222C15.5076 38.1776 15.6142 38.3489 15.7527 38.4966C15.8563 38.6069 15.8683 38.6143 15.9819 38.5031C16.2613 38.2301 16.5328 37.949 16.8182 37.6825C17.0578 37.4587 17.281 37.2191 17.5242 36.9978C17.8682 36.6849 18.1829 36.3406 18.5134 36.0127C18.7499 35.7778 18.9938 35.5504 19.2302 35.3154C19.5766 34.9711 19.9172 34.6212 20.264 34.2772C20.5576 33.9861 20.8506 33.6937 21.1548 33.4136C21.3794 33.2069 21.5921 32.988 21.8061 32.7723C22.1747 32.4005 22.5474 32.0323 22.9193 31.664C23.1272 31.458 23.3365 31.2516 23.5445 31.046C23.7774 30.8158 24.0112 30.5861 24.248 30.3597C24.5014 30.1175 24.7423 29.8626 24.9964 29.6213C25.2258 29.4034 25.433 29.1639 25.6744 28.9579C25.7789 28.8688 25.8668 28.7602 25.96 28.6585C25.9864 28.6298 26.0174 28.5975 25.9963 28.5517C25.975 28.5051 25.9299 28.5139 25.891 28.5119C25.8564 28.51 25.8215 28.5126 25.7867 28.5112C25.5549 28.502 25.3239 28.5303 25.0925 28.5305C23.1981 28.5324 21.3036 28.5317 19.4092 28.5317C19.2171 28.5317 19.2168 28.5314 19.2147 28.3388C19.2145 28.3216 19.2147 28.3043 19.2147 28.287C19.2147 24.4435 19.2143 20.5997 19.2157 16.7561C19.2157 16.5781 19.2182 16.3987 19.2395 16.2222C19.3138 15.6128 19.3682 15.0018 19.5762 14.4139C19.716 14.0189 19.8383 13.6214 20.0333 13.2465C20.2165 12.8942 20.4116 12.5515 20.6445 12.2299C20.715 12.1325 20.7131 12.0693 20.633 11.9664C20.5132 11.8124 20.3916 11.6599 20.2697 11.5074C20.1637 11.3746 20.1427 11.3693 20.0113 11.491C19.7926 11.6934 19.5783 11.9005 19.3656 12.1089C19.0742 12.3943 18.7878 12.6848 18.4958 12.9695C18.2448 13.2142 17.9996 13.4646 17.7467 13.7076C17.3945 14.0457 17.0603 14.4021 16.7125 14.7447C16.4627 14.9906 16.2003 15.2236 15.9488 15.4677C15.7219 15.6879 15.5034 15.9169 15.2789 16.1395C15.0667 16.3498 14.8494 16.5553 14.6375 16.7663C14.4135 16.9892 14.2002 17.2234 13.9694 17.4391C13.7634 17.6316 13.5646 17.8319 13.369 18.0333C13.1443 18.2647 12.9013 18.4762 12.6727 18.7031C12.4567 18.9176 12.2385 19.1314 12.0223 19.3457C11.8023 19.5638 11.5852 19.786 11.3632 20.0022C11.1573 20.2027 10.9544 20.4073 10.7524 20.6113C10.542 20.8237 10.3077 21.0134 10.1203 21.248C10.0807 21.2975 9.97134 21.316 10.0115 21.3996C10.0445 21.4685 10.1358 21.4374 10.2016 21.4376C11.2619 21.4381 12.3222 21.4377 13.3824 21.4377Z" stroke="url(#paint0_linear_92_132)" stroke-opacity="0.45"/>
<defs>
<linearGradient id="paint0_linear_92_132" x1="18" y1="1" x2="18" y2="49" gradientUnits="userSpaceOnUse">
<stop stop-color="white"/>
<stop offset="1" stop-color="#FF601A" stop-opacity="0"/>
</linearGradient>
</defs>
</svg>
