<svg width="651" height="651" viewBox="0 0 651 651" fill="none" xmlns="http://www.w3.org/2000/svg">
<path d="M461.125 515.375H162.75C136.187 515.402 110.538 505.684 90.6617 488.063C70.7856 470.442 58.064 446.142 54.9077 419.768C51.7513 393.394 58.3795 366.778 73.5362 344.964C88.693 323.151 111.325 307.655 137.144 301.413C142.414 260.167 161.081 221.793 190.277 192.186C219.474 162.579 257.584 143.379 298.753 137.534C339.921 131.689 381.87 139.524 418.153 159.835C454.436 180.145 483.046 211.808 499.588 249.957C530.826 259.193 557.691 279.375 575.261 306.806C592.832 334.236 599.931 367.079 595.259 399.317C590.588 431.556 574.457 461.032 549.823 482.346C525.189 503.66 493.7 515.386 461.125 515.375Z" fill="#FF601A"/>
<path d="M461.125 515.375H162.75C136.187 515.402 110.538 505.684 90.6617 488.063C70.7856 470.442 58.064 446.142 54.9077 419.768C51.7513 393.394 58.3795 366.778 73.5362 344.964C88.693 323.151 111.325 307.655 137.144 301.413C142.414 260.167 161.081 221.793 190.277 192.186C219.474 162.579 257.584 143.379 298.753 137.534C339.921 131.689 381.87 139.524 418.153 159.835C454.436 180.145 483.046 211.808 499.588 249.957C530.826 259.193 557.691 279.375 575.261 306.806C592.832 334.236 599.931 367.079 595.259 399.317C590.588 431.556 574.457 461.032 549.823 482.346C525.189 503.66 493.7 515.386 461.125 515.375Z" stroke="#FF601A"/>
<path d="M461.125 515.375H162.75C136.187 515.402 110.538 505.684 90.6617 488.063C70.7856 470.442 58.064 446.142 54.9077 419.768C51.7513 393.394 58.3795 366.778 73.5362 344.964C88.693 323.151 111.325 307.655 137.144 301.413C142.414 260.167 161.081 221.793 190.277 192.186C219.474 162.579 257.584 143.379 298.753 137.534C339.921 131.689 381.87 139.524 418.153 159.835C454.436 180.145 483.046 211.808 499.588 249.957C530.826 259.193 557.691 279.375 575.261 306.806C592.832 334.236 599.931 367.079 595.259 399.317C590.588 431.556 574.457 461.032 549.823 482.346C525.189 503.66 493.7 515.386 461.125 515.375Z" stroke="url(#paint0_linear_89_59)" stroke-opacity="0.45"/>
<path d="M376.883 371.448C376.883 394.076 376.883 416.704 376.883 439.331C376.883 439.527 376.888 439.721 376.881 439.917C376.86 440.494 377.135 440.797 377.75 440.795C378.034 440.793 378.32 440.803 378.605 440.803C400.109 440.803 421.612 440.802 443.116 440.802C443.238 440.802 443.36 440.8 443.483 440.802C444.972 440.806 444.989 440.809 444.989 442.238C444.993 457.636 444.989 473.034 445 488.431C445 489.181 444.781 489.739 444.2 490.289C441.109 493.208 438.069 496.179 435.007 499.126C432.977 501.08 430.942 503.027 428.906 504.975C427.185 506.622 425.451 508.257 423.739 509.913C421.087 512.479 418.491 515.099 415.788 517.616C414.042 519.241 412.339 520.906 410.608 522.544C407.608 525.382 404.633 528.245 401.662 531.11C399.376 533.314 397.151 535.578 394.819 537.737C393.039 539.388 391.315 541.088 389.55 542.751C387.614 544.575 385.691 546.409 383.771 548.246C381.79 550.14 379.818 552.042 377.844 553.943C375.642 556.064 373.445 558.188 371.242 560.307C369.212 562.261 367.176 564.21 365.142 566.16C363.048 568.166 360.921 570.14 358.864 572.18C356.614 574.415 354.295 576.582 352.082 578.856C350.4 580.586 348.598 582.228 346.823 583.885C344.968 585.62 343.141 587.385 341.308 589.141C339.1 591.26 336.9 593.386 334.695 595.506C332.635 597.488 330.574 599.47 328.51 601.449C326.676 603.206 324.832 604.954 323 606.714C320.762 608.861 318.538 611.018 316.3 613.165C313.582 615.773 310.857 618.376 308.135 620.982C305.981 623.044 303.811 625.091 301.682 627.177C301.095 627.751 300.461 628.001 299.631 628C291.568 627.985 283.504 627.991 275.44 627.988C274.374 627.988 274.196 627.817 274.159 626.758C274.147 626.406 274.157 626.054 274.157 625.702C274.157 581.111 274.158 536.52 274.158 491.929C274.158 490.103 274.119 490.061 272.277 490.061C250.733 490.061 229.189 490.061 207.645 490.062C207.441 490.062 207.236 490.056 207.034 490.069C206.411 490.11 206.141 489.8 206.11 489.237C206.082 488.731 206.022 488.224 206.022 487.717C206.017 472.398 206.027 457.078 206 441.759C205.999 440.772 206.32 440.077 207.05 439.404C209.152 437.461 211.193 435.457 213.256 433.476C215.377 431.44 217.539 429.441 219.608 427.358C221.875 425.078 224.245 422.898 226.547 420.653C228.166 419.073 229.839 417.534 231.471 415.964C233.875 413.65 236.292 411.348 238.677 409.015C239.921 407.798 241.207 406.601 242.479 405.403C244.213 403.769 245.807 402.002 247.509 400.335C249.297 398.584 251.146 396.891 252.959 395.163C254.998 393.219 257.026 391.263 259.06 389.313C261.095 387.362 263.13 385.411 265.164 383.458C267.227 381.479 269.287 379.497 271.349 377.517C273.382 375.567 275.418 373.619 277.451 371.667C279.485 369.714 281.518 367.759 283.553 365.807C285.327 364.104 287.102 362.401 288.877 360.699C290.911 358.747 292.967 356.816 294.975 354.84C297.465 352.39 300.015 349.997 302.522 347.564C304.172 345.963 305.881 344.404 307.523 342.797C309.879 340.493 312.287 338.239 314.645 335.936C316.316 334.304 318.056 332.724 319.731 331.093C322.092 328.794 324.471 326.509 326.847 324.228C329.394 321.783 331.957 319.346 334.51 316.904C337.036 314.49 339.557 312.071 342.057 309.633C343.789 307.943 345.53 306.254 347.32 304.617C347.904 304.082 348.461 303.518 349.024 302.965C349.734 302.27 350.464 301.994 351.488 302C359.47 302.04 367.454 302.024 375.436 302.021C376.885 302.021 376.886 302.015 376.886 303.446C376.886 322.049 376.886 340.651 376.886 359.254C376.886 363.319 376.883 367.383 376.883 371.448ZM293.041 440.806C300.412 440.806 307.783 440.81 315.154 440.8C317.197 440.798 317.038 440.76 317.037 442.56C317.036 467.883 317.034 493.206 317.041 518.529C317.042 520.952 316.926 523.366 316.65 525.772C316.495 527.131 316.467 528.514 316.162 529.84C315.812 531.361 315.648 532.914 315.215 534.425C314.989 535.216 314.625 535.95 314.418 536.745C313.975 538.439 313.355 540.081 312.685 541.707C312.458 542.259 312.058 542.702 311.862 543.258C311.417 544.512 310.773 545.684 310.088 546.822C309.136 548.404 308.063 549.919 307.032 551.457C306.434 552.348 306.409 552.654 307.081 553.442C307.98 554.498 308.729 555.661 309.703 556.664C310.431 557.414 310.515 557.464 311.314 556.709C313.278 554.854 315.186 552.945 317.192 551.136C318.877 549.616 320.446 547.988 322.155 546.485C324.573 544.36 326.786 542.022 329.109 539.794C330.771 538.199 332.486 536.655 334.147 535.059C336.582 532.72 338.977 530.344 341.415 528.008C343.478 526.03 345.538 524.045 347.676 522.143C349.255 520.739 350.75 519.252 352.254 517.787C354.846 515.262 357.465 512.761 360.08 510.26C361.541 508.861 363.012 507.459 364.475 506.062C366.112 504.499 367.755 502.939 369.419 501.402C371.201 499.756 372.894 498.025 374.681 496.387C376.293 494.907 377.75 493.28 379.447 491.881C380.181 491.276 380.799 490.538 381.454 489.847C381.64 489.652 381.857 489.433 381.71 489.122C381.559 488.806 381.243 488.865 380.969 488.851C380.726 488.838 380.48 488.856 380.236 488.847C378.606 488.785 376.982 488.977 375.356 488.978C362.04 488.991 348.722 488.986 335.406 488.986C334.056 488.986 334.053 488.984 334.039 487.676C334.037 487.559 334.039 487.442 334.039 487.324C334.039 461.22 334.036 435.115 334.046 409.01C334.046 407.801 334.063 406.583 334.213 405.384C334.735 401.245 335.117 397.096 336.58 393.102C337.562 390.42 338.422 387.72 339.793 385.174C341.081 382.782 342.452 380.454 344.089 378.27C344.585 377.608 344.572 377.179 344.008 376.48C343.167 375.434 342.311 374.399 341.455 373.363C340.71 372.461 340.562 372.425 339.638 373.252C338.101 374.626 336.595 376.032 335.099 377.448C333.051 379.386 331.038 381.359 328.985 383.293C327.221 384.955 325.497 386.655 323.719 388.306C321.244 390.602 318.894 393.023 316.45 395.349C314.694 397.02 312.849 398.602 311.081 400.26C309.486 401.755 307.951 403.31 306.372 404.822C304.88 406.251 303.353 407.646 301.864 409.08C300.289 410.594 298.79 412.184 297.167 413.649C295.719 414.956 294.321 416.317 292.947 417.684C291.367 419.256 289.659 420.693 288.052 422.234C286.534 423.69 285 425.142 283.48 426.598C281.934 428.079 280.408 429.588 278.847 431.057C277.4 432.418 275.974 433.808 274.554 435.193C273.074 436.636 271.427 437.925 270.11 439.517C269.832 439.854 269.063 439.979 269.345 440.547C269.578 441.015 270.219 440.804 270.682 440.805C278.135 440.809 285.588 440.806 293.041 440.806Z" fill="white" fill-opacity="0.8"/>
<defs>
<linearGradient id="paint0_linear_89_59" x1="325.4" y1="135.649" x2="325.4" y2="515.375" gradientUnits="userSpaceOnUse">
<stop stop-color="white"/>
<stop offset="1" stop-color="#FF601A" stop-opacity="0"/>
</linearGradient>
</defs>
</svg>
