<svg width="401" height="521" viewBox="0 0 401 521" fill="none" xmlns="http://www.w3.org/2000/svg">
<path d="M400.263 520.164C306.569 506.658 212.876 493.151 119.182 479.645H243.506C242.912 391.905 242.319 304.164 241.725 216.424C241.655 209.156 241.845 199.319 242.933 187.74C244.056 175.796 246.082 154.257 254.364 131.022C259.495 116.628 269.995 93.2575 292.155 69.0476C287.65 64.9956 283.146 60.9436 278.641 56.8917C319.182 37.9826 359.722 19.0735 400.263 0.164429V520.164Z" fill="#C5C5CA"/>
<path d="M1.61409 56.8916H278.641C235.849 68.5972 193.055 80.3029 150.263 92.0085C150.653 166.322 151.043 240.635 151.433 314.948C151.532 333.881 150.63 363.825 138.794 400.35C129.178 430.022 115.827 452.644 105.668 467.489C110.173 471.541 114.677 475.593 119.182 479.645H0.262695C0.713366 338.727 1.16342 197.809 1.61409 56.8916Z" fill="#FF601A"/>
</svg>
