<svg width="66" height="45" viewBox="0 0 66 45" fill="none" xmlns="http://www.w3.org/2000/svg">
<g clip-path="url(#clip0_91_90)">
<path d="M43.7257 4.86318L37.1695 14.8429C37.033 15.0435 36.8793 15.2309 36.7091 15.4031C36.5583 15.5832 36.341 15.6934 36.1086 15.7065C35.877 15.6926 35.6604 15.5832 35.5096 15.4031C35.3366 15.2258 35.1728 15.0391 35.0206 14.8429L33.9182 13.1559L38.0445 6.78211C38.6164 5.81644 38.2418 4.28699 37.013 4.28699C36.5962 4.29063 36.2087 4.50725 35.9807 4.86318L32.2304 10.5726L28.5209 4.896C28.3007 4.51382 27.8953 4.28115 27.4607 4.28772C27.0947 4.2848 26.7465 4.4489 26.512 4.73554C26.1217 5.1943 26.0166 5.83905 26.2397 6.40211C26.309 6.58299 26.4005 6.75512 26.512 6.91266L30.5583 13.118L29.4245 14.8444C29.2879 15.045 29.1342 15.2324 28.9641 15.4045C28.8133 15.5847 28.5966 15.6941 28.3643 15.7079C28.132 15.6948 27.9154 15.5847 27.7645 15.4045C27.5915 15.2273 27.4285 15.0406 27.2763 14.8444L20.7765 4.89746C20.5564 4.51527 20.151 4.28261 19.7164 4.28917C19.3503 4.28626 19.0022 4.45036 18.7677 4.737C18.5075 5.03603 18.3681 5.42478 18.3774 5.82447C18.3752 6.02723 18.4131 6.22926 18.4889 6.4167C18.5604 6.5932 18.6548 6.76023 18.7677 6.91266L25.547 17.3081C25.8672 17.7851 26.2926 18.1797 26.7887 18.4598C27.2691 18.7333 27.811 18.877 28.3614 18.8763C28.9462 18.8792 29.5203 18.7187 30.0214 18.4117C30.5247 18.1104 30.9579 17.7013 31.291 17.2133L32.2547 15.7233L33.2877 17.3081C33.6087 17.7851 34.0333 18.1797 34.5295 18.4598C35.0099 18.7333 35.5517 18.877 36.1022 18.8763C36.687 18.8792 37.261 18.7187 37.7622 18.4117C38.2654 18.1104 38.6987 17.7013 39.0318 17.2133L45.7831 6.78357C46.4651 5.36643 45.6723 4.25781 44.7744 4.25781C44.3469 4.27313 43.953 4.49996 43.7186 4.86464" fill="url(#paint0_radial_91_90)"/>
<path d="M29.9365 3.35941L32.1905 6.71954L34.4453 3.35941L32.1905 0L29.9365 3.35941Z" fill="url(#paint1_radial_91_90)"/>
<path d="M65.4498 37.789C65.4591 38.1566 65.3318 38.5147 65.0924 38.7904C64.8765 39.0537 64.5555 39.2054 64.2188 39.2025C63.8821 39.2054 63.5611 39.0537 63.3452 38.7904C63.1064 38.5147 62.9784 38.1566 62.9877 37.789V31.3707C62.9877 30.5655 62.9448 30.1629 62.8598 30.1636C62.7919 30.1636 62.5517 30.4291 62.1406 30.9594L56.4894 38.3215C56.275 38.6095 55.9919 38.8378 55.6673 38.9844C55.3356 39.1325 54.9768 39.2069 54.6143 39.2032C54.2519 39.2069 53.893 39.1325 53.5606 38.9844C53.236 38.8378 52.9536 38.6095 52.7385 38.3215L47.0909 30.9594C46.697 30.4291 46.4575 30.1636 46.3717 30.1636C46.2859 30.1636 46.243 30.5662 46.2437 31.3707V37.789C46.2538 38.1566 46.1258 38.5147 45.8863 38.7904C45.6704 39.0537 45.3494 39.2054 45.0127 39.2025C44.676 39.2054 44.355 39.0537 44.1391 38.7904C43.8996 38.5147 43.7724 38.1566 43.7817 37.789V29.1892C43.761 28.4737 43.9683 27.7706 44.3729 27.1864C44.7403 26.6503 45.3501 26.3389 45.9914 26.3615C46.3867 26.3564 46.7742 26.4804 47.0959 26.7152C47.4305 26.9588 47.7321 27.2462 47.9945 27.5693L53.903 35.2859C54.0024 35.3967 54.1096 35.5003 54.224 35.5951C54.3334 35.6958 54.4749 35.7527 54.6222 35.757C54.7694 35.7527 54.911 35.6958 55.0204 35.5951C55.1347 35.5003 55.242 35.3967 55.3413 35.2859L61.2241 27.5693H61.2499C61.4729 27.2127 61.771 26.9107 62.1227 26.6853C62.4616 26.4702 62.854 26.3579 63.253 26.3615C63.8935 26.3396 64.5033 26.6503 64.8707 27.1864C65.2754 27.7706 65.4834 28.4737 65.4619 29.1892L65.4498 37.789Z" fill="#EC681F"/>
<path d="M24.9899 38.6745C24.7798 39.002 24.4223 39.2011 24.0391 39.2048C23.7024 39.2077 23.3814 39.056 23.1655 38.7927C22.9261 38.517 22.7988 38.1589 22.8081 37.7905C22.7938 37.4842 22.8846 37.1823 23.0647 36.9365L29.3064 27.309C29.6016 26.8539 29.9977 26.4753 30.4624 26.2048C30.9292 25.9232 31.4618 25.7759 32.0036 25.7774C32.5155 25.7766 33.0195 25.9086 33.4677 26.1603C33.926 26.4112 34.3149 26.7758 34.598 27.2207L40.8403 36.7928C40.944 36.9336 41.0305 37.086 41.097 37.2486C41.1663 37.4215 41.2013 37.6068 41.1992 37.7935C41.2085 38.1618 41.0805 38.5199 40.8417 38.7956C40.6251 39.0589 40.3049 39.2099 39.9682 39.2077C39.5685 39.2142 39.1947 38.9998 38.9916 38.6483L33.0066 29.489C32.8665 29.3089 32.7164 29.1368 32.557 28.9741C32.4183 28.8078 32.2188 28.7072 32.0051 28.6948C31.7913 28.7072 31.5919 28.8086 31.4525 28.9741C31.2959 29.1324 31.1544 29.3045 31.0293 29.489L24.9899 38.6745Z" fill="#EC681F"/>
<path fill-rule="evenodd" clip-rule="evenodd" d="M33.3193 34.2692C33.3165 34.9439 32.7732 35.4989 32.1119 35.5033L26.568 35.5084C25.9067 35.5055 25.3634 34.9519 25.3584 34.2773C25.362 33.6026 25.9039 33.049 26.5651 33.0439L32.109 33.0381C32.7703 33.041 33.3143 33.5953 33.3186 34.27" fill="#EC681F"/>
<path d="M18.9662 27.0684C18.6517 28.4038 17.1669 34.0315 16.8931 35.065C16.3112 34.0665 13.17 29.1011 12.1391 27.3069C11.6601 26.4258 9.84075 26.4258 9.35106 27.3069C8.31948 29.1011 5.179 34.0665 4.59709 35.065C4.32114 34.0315 2.83705 28.4038 2.52393 27.0684C2.23797 25.865 -0.434258 25.9197 0.0661599 27.8233L0.481507 29.5737L2.20938 36.8512C2.3209 37.3187 2.59542 39.0575 4.4534 39.0575C5.59292 39.0575 5.96037 38.2049 6.75032 36.8826C8.13361 34.5654 9.4969 32.4656 10.2218 31.1936C10.3304 31.0033 10.5306 30.8858 10.7458 30.8858C10.9617 30.8858 11.1619 31.0033 11.2705 31.1936C11.9954 32.4663 13.3587 34.5669 14.742 36.8826C15.5319 38.2049 15.8994 39.0575 17.0389 39.0575C18.8976 39.0575 19.1721 37.3187 19.2829 36.8512L21.0108 29.5737L21.4261 27.8233C21.9266 25.9197 19.2529 25.865 18.9684 27.0684" fill="#EC681F"/>
</g>
<defs>
<radialGradient id="paint0_radial_91_90" cx="0" cy="0" r="1" gradientUnits="userSpaceOnUse" gradientTransform="translate(32.2085 11.567) scale(11.0194 21.7036)">
<stop stop-color="#E8A900"/>
<stop offset="0.61" stop-color="#C37E07"/>
<stop offset="1" stop-color="#B0690B"/>
</radialGradient>
<radialGradient id="paint1_radial_91_90" cx="0" cy="0" r="1" gradientUnits="userSpaceOnUse" gradientTransform="translate(32.1932 3.35977) scale(4.11841 2.87596)">
<stop stop-color="#E8A900"/>
<stop offset="0.61" stop-color="#C37E07"/>
<stop offset="1" stop-color="#B0690B"/>
</radialGradient>
<clipPath id="clip0_91_90">
<rect width="65.7692" height="45" fill="white"/>
</clipPath>
</defs>
</svg>
